%TF.GenerationSoftware,KiCad,Pcbnew,(6.0.5)*%
%TF.CreationDate,2022-06-22T13:59:23+07:00*%
%TF.ProjectId,timer,74696d65-722e-46b6-9963-61645f706362,rev?*%
%TF.SameCoordinates,Original*%
%TF.FileFunction,Soldermask,Bot*%
%TF.FilePolarity,Negative*%
%FSLAX46Y46*%
G04 Gerber Fmt 4.6, Leading zero omitted, Abs format (unit mm)*
G04 Created by KiCad (PCBNEW (6.0.5)) date 2022-06-22 13:59:23*
%MOMM*%
%LPD*%
G01*
G04 APERTURE LIST*
%ADD10C,3.200000*%
%ADD11R,1.700000X1.700000*%
%ADD12O,1.700000X1.700000*%
%ADD13C,1.600000*%
%ADD14O,1.600000X1.600000*%
%ADD15R,3.000000X3.000000*%
%ADD16C,3.000000*%
%ADD17O,2.000000X1.600000*%
%ADD18R,2.000000X2.000000*%
%ADD19R,1.800000X1.800000*%
%ADD20C,1.800000*%
%ADD21R,2.000000X4.600000*%
%ADD22O,2.000000X4.200000*%
%ADD23O,4.200000X2.000000*%
%ADD24R,2.000000X1.905000*%
%ADD25O,2.000000X1.905000*%
%ADD26R,1.905000X2.000000*%
%ADD27O,1.905000X2.000000*%
G04 APERTURE END LIST*
D10*
%TO.C,REF\u002A\u002A*%
X54356000Y-68072000D03*
%TD*%
%TO.C,REF\u002A\u002A*%
X54356000Y-121920000D03*
%TD*%
%TO.C,REF\u002A\u002A*%
X133604000Y-121920000D03*
%TD*%
%TO.C,REF\u002A\u002A*%
X133604000Y-67564000D03*
%TD*%
D11*
%TO.C,J1*%
X55895000Y-74676000D03*
D12*
X58435000Y-74676000D03*
X60975000Y-74676000D03*
%TD*%
D13*
%TO.C,R3*%
X83566000Y-108204000D03*
D14*
X96266000Y-108204000D03*
%TD*%
D13*
%TO.C,R2*%
X84074000Y-89408000D03*
D14*
X96774000Y-89408000D03*
%TD*%
D15*
%TO.C,YELLOW*%
X128524000Y-113792000D03*
D16*
X128524000Y-108712000D03*
%TD*%
D17*
%TO.C,U2*%
X78971000Y-87376000D03*
X78971000Y-89916000D03*
X78971000Y-92456000D03*
X78971000Y-94996000D03*
X78971000Y-97536000D03*
X78971000Y-100076000D03*
X78971000Y-102616000D03*
X78971000Y-105156000D03*
X56111000Y-105156000D03*
X56111000Y-102616000D03*
X56111000Y-100076000D03*
X56111000Y-97536000D03*
X56111000Y-94996000D03*
X56111000Y-92456000D03*
X56111000Y-89916000D03*
D18*
X56111000Y-87376000D03*
%TD*%
D19*
%TO.C,D1*%
X103383000Y-98552000D03*
D20*
X100843000Y-98552000D03*
%TD*%
D13*
%TO.C,C2*%
X90650000Y-77216000D03*
X87150000Y-77216000D03*
%TD*%
D19*
%TO.C,D2*%
X103383000Y-89408000D03*
D20*
X100843000Y-89408000D03*
%TD*%
D15*
%TO.C,RED*%
X128524000Y-103124000D03*
D16*
X128524000Y-98044000D03*
%TD*%
D15*
%TO.C,GREEN*%
X128524000Y-92456000D03*
D16*
X128524000Y-87376000D03*
%TD*%
D21*
%TO.C,Input1*%
X131318000Y-77074000D03*
D22*
X125018000Y-77074000D03*
D23*
X128418000Y-81874000D03*
%TD*%
D11*
%TO.C,J2*%
X70627000Y-74676000D03*
D12*
X73167000Y-74676000D03*
X75707000Y-74676000D03*
%TD*%
D24*
%TO.C,U1*%
X107625000Y-80264000D03*
D25*
X107625000Y-77724000D03*
X107625000Y-75184000D03*
%TD*%
D26*
%TO.C,Q2*%
X109728000Y-89337000D03*
D27*
X112268000Y-89337000D03*
X114808000Y-89337000D03*
%TD*%
D13*
%TO.C,R1*%
X84074000Y-98552000D03*
D14*
X96774000Y-98552000D03*
%TD*%
D26*
%TO.C,Q3*%
X109728000Y-108204000D03*
D27*
X112268000Y-108204000D03*
X114808000Y-108204000D03*
%TD*%
D19*
%TO.C,D3*%
X103383000Y-108204000D03*
D20*
X100843000Y-108204000D03*
%TD*%
D26*
%TO.C,Q1*%
X109728000Y-99497000D03*
D27*
X112268000Y-99497000D03*
X114808000Y-99497000D03*
%TD*%
M02*
