M48
; DRILL file {KiCad (6.0.5)} date Thu Jun 23 15:45:15 2022
; FORMAT={-:-/ absolute / inch / decimal}
; #@! TF.CreationDate,2022-06-23T15:45:15+07:00
; #@! TF.GenerationSoftware,Kicad,Pcbnew,(6.0.5)
; #@! TF.FileFunction,MixedPlating,1,2
FMAT,2
INCH
; #@! TA.AperFunction,Plated,PTH,ComponentDrill
T1C0.0315
; #@! TA.AperFunction,Plated,PTH,ComponentDrill
T2C0.0354
; #@! TA.AperFunction,Plated,PTH,ComponentDrill
T3C0.0394
; #@! TA.AperFunction,Plated,PTH,ComponentDrill
T4C0.0433
; #@! TA.AperFunction,Plated,PTH,ComponentDrill
T5C0.0598
; #@! TA.AperFunction,NonPlated,NPTH,ComponentDrill
T6C0.1260
%
G90
G05
T1
X3.29Y-4.26
X3.31Y-3.52
X3.31Y-3.88
X3.4311Y-3.04
X3.5689Y-3.04
X3.79Y-4.26
X3.81Y-3.52
X3.81Y-3.88
T2
X3.9702Y-3.52
X3.9702Y-3.88
X3.9702Y-4.26
X4.0702Y-3.52
X4.0702Y-3.88
X4.0702Y-4.26
T3
X2.2006Y-2.94
X2.2091Y-3.44
X2.2091Y-3.54
X2.2091Y-3.64
X2.2091Y-3.74
X2.2091Y-3.84
X2.2091Y-3.94
X2.2091Y-4.04
X2.2091Y-4.14
X2.3006Y-2.94
X2.4006Y-2.94
X2.7806Y-2.94
X2.8806Y-2.94
X2.9806Y-2.94
X3.1091Y-3.44
X3.1091Y-3.54
X3.1091Y-3.64
X3.1091Y-3.74
X3.1091Y-3.84
X3.1091Y-3.94
X3.1091Y-4.04
X3.1091Y-4.14
T4
X4.2372Y-2.96
X4.2372Y-3.06
X4.2372Y-3.16
X4.32Y-3.5172
X4.32Y-3.9172
X4.32Y-4.26
X4.42Y-3.5172
X4.42Y-3.9172
X4.42Y-4.26
X4.52Y-3.5172
X4.52Y-3.9172
X4.52Y-4.26
T5
X5.06Y-3.44
X5.06Y-3.64
X5.06Y-3.86
X5.06Y-4.06
X5.06Y-4.28
X5.06Y-4.48
T6
X2.14Y-2.68
X2.14Y-4.8
X5.26Y-2.66
X5.26Y-4.8
T3
G00X4.922Y-2.9911
M15
G01X4.922Y-3.0777
M16
G05
G00X5.0991Y-3.2234
M15
G01X5.0125Y-3.2234
M16
G05
G00X5.17Y-2.9832
M15
G01X5.17Y-3.0856
M16
G05
T0
M30
