%TF.GenerationSoftware,KiCad,Pcbnew,(6.0.5)*%
%TF.CreationDate,2022-06-05T14:33:10+07:00*%
%TF.ProjectId,timer,74696d65-722e-46b6-9963-61645f706362,rev?*%
%TF.SameCoordinates,Original*%
%TF.FileFunction,Copper,L2,Bot*%
%TF.FilePolarity,Positive*%
%FSLAX46Y46*%
G04 Gerber Fmt 4.6, Leading zero omitted, Abs format (unit mm)*
G04 Created by KiCad (PCBNEW (6.0.5)) date 2022-06-05 14:33:10*
%MOMM*%
%LPD*%
G01*
G04 APERTURE LIST*
%TA.AperFunction,NonConductor*%
%ADD10C,0.200000*%
%TD*%
%TA.AperFunction,ComponentPad*%
%ADD11C,1.600000*%
%TD*%
%TA.AperFunction,ComponentPad*%
%ADD12O,1.600000X1.600000*%
%TD*%
%TA.AperFunction,ComponentPad*%
%ADD13R,3.960000X1.980000*%
%TD*%
%TA.AperFunction,ComponentPad*%
%ADD14O,3.960000X1.980000*%
%TD*%
%TA.AperFunction,ComponentPad*%
%ADD15R,1.905000X2.000000*%
%TD*%
%TA.AperFunction,ComponentPad*%
%ADD16O,1.905000X2.000000*%
%TD*%
%TA.AperFunction,ComponentPad*%
%ADD17R,1.700000X1.700000*%
%TD*%
%TA.AperFunction,ComponentPad*%
%ADD18O,1.700000X1.700000*%
%TD*%
%TA.AperFunction,ComponentPad*%
%ADD19R,2.000000X2.000000*%
%TD*%
%TA.AperFunction,ComponentPad*%
%ADD20O,2.000000X1.600000*%
%TD*%
%TA.AperFunction,Conductor*%
%ADD21C,0.600000*%
%TD*%
%TA.AperFunction,Conductor*%
%ADD22C,0.400000*%
%TD*%
G04 APERTURE END LIST*
D10*
X91640000Y-81640000D02*
X165060000Y-81640000D01*
X165060000Y-81640000D02*
X165060000Y-127050000D01*
X165060000Y-127050000D02*
X91640000Y-127050000D01*
X91640000Y-127050000D02*
X91640000Y-81640000D01*
D11*
%TO.P,R5,1*%
%TO.N,/O2*%
X97790000Y-109220000D03*
D12*
%TO.P,R5,2*%
%TO.N,Net-(J2-Pad2)*%
X110490000Y-109220000D03*
%TD*%
D13*
%TO.P,Input1,1,Pin_1*%
%TO.N,/Vin*%
X154870000Y-88580000D03*
D14*
%TO.P,Input1,2,Pin_2*%
%TO.N,GND*%
X154870000Y-93580000D03*
%TD*%
D15*
%TO.P,Q1,1,B*%
%TO.N,Net-(Q1-Pad1)*%
X154940000Y-119380000D03*
D16*
%TO.P,Q1,2,C*%
%TO.N,/L1*%
X152400000Y-119380000D03*
%TO.P,Q1,3,E*%
%TO.N,GND*%
X149860000Y-119380000D03*
%TD*%
D15*
%TO.P,Q2,1,B*%
%TO.N,Net-(Q2-Pad1)*%
X129540000Y-119380000D03*
D16*
%TO.P,Q2,2,C*%
%TO.N,/L2*%
X127000000Y-119380000D03*
%TO.P,Q2,3,E*%
%TO.N,GND*%
X124460000Y-119380000D03*
%TD*%
D17*
%TO.P,LA3,1,-*%
%TO.N,/L3*%
X139650000Y-111760000D03*
D18*
%TO.P,LA3,2,+*%
%TO.N,/Vin*%
X139650000Y-109220000D03*
%TD*%
D19*
%TO.P,U2,1,~{RST}*%
%TO.N,unconnected-(U2-Pad1)*%
X93980000Y-97790000D03*
D20*
%TO.P,U2,2,A0*%
%TO.N,unconnected-(U2-Pad2)*%
X93980000Y-100330000D03*
%TO.P,U2,3,D0*%
%TO.N,unconnected-(U2-Pad3)*%
X93980000Y-102870000D03*
%TO.P,U2,4,SCK/D5*%
%TO.N,/O1*%
X93980000Y-105410000D03*
%TO.P,U2,5,MISO/D6*%
%TO.N,/O2*%
X93980000Y-107950000D03*
%TO.P,U2,6,MOSI/D7*%
%TO.N,unconnected-(U2-Pad6)*%
X93980000Y-110490000D03*
%TO.P,U2,7,CS/D8*%
%TO.N,unconnected-(U2-Pad7)*%
X93980000Y-113030000D03*
%TO.P,U2,8,3V3*%
%TO.N,unconnected-(U2-Pad8)*%
X93980000Y-115570000D03*
%TO.P,U2,9,5V*%
%TO.N,+5V*%
X116840000Y-115570000D03*
%TO.P,U2,10,GND*%
%TO.N,GND*%
X116840000Y-113030000D03*
%TO.P,U2,11,D4*%
%TO.N,/D4*%
X116840000Y-110490000D03*
%TO.P,U2,12,D3*%
%TO.N,/D3*%
X116840000Y-107950000D03*
%TO.P,U2,13,SDA/D2*%
%TO.N,/D2*%
X116840000Y-105410000D03*
%TO.P,U2,14,SCL/D1*%
%TO.N,unconnected-(U2-Pad14)*%
X116840000Y-102870000D03*
%TO.P,U2,15,RX*%
%TO.N,unconnected-(U2-Pad15)*%
X116840000Y-100330000D03*
%TO.P,U2,16,TX*%
%TO.N,unconnected-(U2-Pad16)*%
X116840000Y-97790000D03*
%TD*%
D17*
%TO.P,J1,1,Pin_1*%
%TO.N,+5V*%
X124460000Y-88900000D03*
D18*
%TO.P,J1,2,Pin_2*%
%TO.N,Net-(J1-Pad2)*%
X127000000Y-88900000D03*
%TO.P,J1,3,Pin_3*%
%TO.N,GND*%
X129540000Y-88900000D03*
%TD*%
D17*
%TO.P,LA2,1,-*%
%TO.N,/L2*%
X127000000Y-111760000D03*
D18*
%TO.P,LA2,2,+*%
%TO.N,/Vin*%
X127000000Y-109220000D03*
%TD*%
D11*
%TO.P,C1,1*%
%TO.N,+5V*%
X142240000Y-93980000D03*
%TO.P,C1,2*%
%TO.N,GND*%
X138740000Y-93980000D03*
%TD*%
%TO.P,R3,1*%
%TO.N,/D4*%
X144780000Y-102870000D03*
D12*
%TO.P,R3,2*%
%TO.N,Net-(Q3-Pad1)*%
X144780000Y-115570000D03*
%TD*%
D11*
%TO.P,R4,1*%
%TO.N,/O1*%
X97790000Y-104140000D03*
D12*
%TO.P,R4,2*%
%TO.N,Net-(J1-Pad2)*%
X110490000Y-104140000D03*
%TD*%
D15*
%TO.P,U1,1,VI*%
%TO.N,/Vin*%
X137160000Y-86360000D03*
D16*
%TO.P,U1,2,GND*%
%TO.N,GND*%
X139700000Y-86360000D03*
%TO.P,U1,3,VO*%
%TO.N,+5V*%
X142240000Y-86360000D03*
%TD*%
D17*
%TO.P,J2,1,Pin_1*%
%TO.N,+5V*%
X124460000Y-96520000D03*
D18*
%TO.P,J2,2,Pin_2*%
%TO.N,Net-(J2-Pad2)*%
X127000000Y-96520000D03*
%TO.P,J2,3,Pin_3*%
%TO.N,GND*%
X129540000Y-96520000D03*
%TD*%
D15*
%TO.P,Q3,1,B*%
%TO.N,Net-(Q3-Pad1)*%
X142240000Y-119380000D03*
D16*
%TO.P,Q3,2,C*%
%TO.N,/L3*%
X139700000Y-119380000D03*
%TO.P,Q3,3,E*%
%TO.N,GND*%
X137160000Y-119380000D03*
%TD*%
D11*
%TO.P,R1,1*%
%TO.N,/D2*%
X157480000Y-102870000D03*
D12*
%TO.P,R1,2*%
%TO.N,Net-(Q1-Pad1)*%
X157480000Y-115570000D03*
%TD*%
D17*
%TO.P,LA1,1,-*%
%TO.N,/L1*%
X152400000Y-111760000D03*
D18*
%TO.P,LA1,2,+*%
%TO.N,/Vin*%
X152400000Y-109220000D03*
%TD*%
D11*
%TO.P,R2,1*%
%TO.N,/D3*%
X132080000Y-102870000D03*
D12*
%TO.P,R2,2*%
%TO.N,Net-(Q2-Pad1)*%
X132080000Y-115570000D03*
%TD*%
D21*
%TO.N,GND*%
X138959511Y-121179511D02*
X137160000Y-119380000D01*
X118430000Y-95670000D02*
X115380000Y-95670000D01*
X154940000Y-93900000D02*
X154940000Y-93980000D01*
X126259511Y-121179511D02*
X124460000Y-119380000D01*
X129540000Y-93980000D02*
X129540000Y-96520000D01*
X152480000Y-91440000D02*
X154940000Y-93900000D01*
X129060000Y-98540000D02*
X121300000Y-98540000D01*
X149860000Y-119380000D02*
X148060489Y-121179511D01*
X148060489Y-121179511D02*
X138959511Y-121179511D01*
X115380000Y-95670000D02*
X114300000Y-96750000D01*
X139700000Y-86360000D02*
X139700000Y-91440000D01*
X139700000Y-91440000D02*
X139700000Y-93020000D01*
X135360489Y-121179511D02*
X126259511Y-121179511D01*
X137160000Y-96520000D02*
X129540000Y-96520000D01*
X114300000Y-96750000D02*
X114300000Y-110490000D01*
X137160000Y-119380000D02*
X135360489Y-121179511D01*
X124460000Y-119380000D02*
X118110000Y-113030000D01*
X114300000Y-110490000D02*
X116840000Y-113030000D01*
X129540000Y-96520000D02*
X129540000Y-98060000D01*
X118110000Y-113030000D02*
X116840000Y-113030000D01*
X138740000Y-94940000D02*
X137160000Y-96520000D01*
X129540000Y-98060000D02*
X129060000Y-98540000D01*
X139700000Y-93020000D02*
X138740000Y-93980000D01*
X138740000Y-93980000D02*
X138740000Y-94940000D01*
X139700000Y-91440000D02*
X152480000Y-91440000D01*
X129540000Y-88900000D02*
X129540000Y-93980000D01*
X121300000Y-98540000D02*
X118430000Y-95670000D01*
D22*
%TO.N,Net-(J1-Pad2)*%
X127000000Y-90490000D02*
X127000000Y-88900000D01*
X110490000Y-94530000D02*
X113760000Y-91260000D01*
X110490000Y-104140000D02*
X110490000Y-94530000D01*
X113760000Y-91260000D02*
X126230000Y-91260000D01*
X126230000Y-91260000D02*
X127000000Y-90490000D01*
%TO.N,Net-(J2-Pad2)*%
X114160000Y-93600000D02*
X125940000Y-93600000D01*
X110490000Y-109220000D02*
X112570000Y-107140000D01*
X127000000Y-94660000D02*
X127000000Y-96520000D01*
X112570000Y-95190000D02*
X114160000Y-93600000D01*
X112570000Y-107140000D02*
X112570000Y-95190000D01*
X125940000Y-93600000D02*
X127000000Y-94660000D01*
%TO.N,/L1*%
X152400000Y-111760000D02*
X152400000Y-119380000D01*
%TO.N,/L2*%
X127000000Y-111760000D02*
X127000000Y-119380000D01*
%TO.N,/L3*%
X139650000Y-119330000D02*
X139700000Y-119380000D01*
X139650000Y-111760000D02*
X139650000Y-119330000D01*
%TO.N,Net-(Q1-Pad1)*%
X157480000Y-116840000D02*
X154940000Y-119380000D01*
X157480000Y-113030000D02*
X157480000Y-116840000D01*
%TO.N,Net-(Q2-Pad1)*%
X132080000Y-113030000D02*
X132080000Y-116840000D01*
X132080000Y-116840000D02*
X129540000Y-119380000D01*
%TO.N,Net-(Q3-Pad1)*%
X144780000Y-116840000D02*
X142240000Y-119380000D01*
X144780000Y-113030000D02*
X144780000Y-116840000D01*
%TO.N,/D2*%
X157480000Y-102870000D02*
X155460000Y-100850000D01*
X121400000Y-100850000D02*
X116840000Y-105410000D01*
X155460000Y-100850000D02*
X121400000Y-100850000D01*
%TO.N,/D3*%
X132080000Y-102870000D02*
X121920000Y-102870000D01*
X121920000Y-102870000D02*
X116840000Y-107950000D01*
%TO.N,/D4*%
X141775000Y-105875000D02*
X121455000Y-105875000D01*
X144780000Y-102870000D02*
X141775000Y-105875000D01*
X121455000Y-105875000D02*
X116840000Y-110490000D01*
%TO.N,/O1*%
X95250000Y-104140000D02*
X93980000Y-105410000D01*
X97790000Y-104140000D02*
X95250000Y-104140000D01*
%TO.N,/O2*%
X97790000Y-109220000D02*
X96520000Y-107950000D01*
X96520000Y-107950000D02*
X93980000Y-107950000D01*
%TD*%
%TA.AperFunction,Conductor*%
%TO.N,GND*%
G36*
X162502121Y-82268502D02*
G01*
X162548614Y-82322158D01*
X162560000Y-82374500D01*
X162560000Y-124334000D01*
X162539998Y-124402121D01*
X162486342Y-124448614D01*
X162434000Y-124460000D01*
X92374500Y-124460000D01*
X92306379Y-124439998D01*
X92259886Y-124386342D01*
X92248500Y-124334000D01*
X92248500Y-119650111D01*
X123012798Y-119650111D01*
X123013751Y-119661704D01*
X123015433Y-119671866D01*
X123071422Y-119894771D01*
X123074741Y-119904519D01*
X123166385Y-120115289D01*
X123171251Y-120124364D01*
X123296085Y-120317327D01*
X123302378Y-120325498D01*
X123457050Y-120495480D01*
X123464583Y-120502506D01*
X123644944Y-120644945D01*
X123653531Y-120650650D01*
X123854722Y-120761714D01*
X123864134Y-120765944D01*
X124080768Y-120842659D01*
X124090739Y-120845293D01*
X124188163Y-120862647D01*
X124201460Y-120861187D01*
X124205543Y-120848096D01*
X124714000Y-120848096D01*
X124717918Y-120861440D01*
X124732194Y-120863427D01*
X124794515Y-120853890D01*
X124804543Y-120851501D01*
X125022988Y-120780102D01*
X125032497Y-120776105D01*
X125236344Y-120669989D01*
X125245069Y-120664495D01*
X125428852Y-120526507D01*
X125436559Y-120519664D01*
X125595339Y-120353509D01*
X125601823Y-120345502D01*
X125624237Y-120312644D01*
X125679148Y-120267641D01*
X125749672Y-120259468D01*
X125813420Y-120290722D01*
X125834116Y-120315204D01*
X125838498Y-120321977D01*
X126000186Y-120499670D01*
X126025503Y-120519664D01*
X126184670Y-120645367D01*
X126184675Y-120645370D01*
X126188724Y-120648568D01*
X126193240Y-120651061D01*
X126193243Y-120651063D01*
X126394526Y-120762177D01*
X126394530Y-120762179D01*
X126399050Y-120764674D01*
X126403919Y-120766398D01*
X126403923Y-120766400D01*
X126620640Y-120843144D01*
X126620644Y-120843145D01*
X126625515Y-120844870D01*
X126630608Y-120845777D01*
X126630611Y-120845778D01*
X126856948Y-120886095D01*
X126856954Y-120886096D01*
X126862037Y-120887001D01*
X126949400Y-120888068D01*
X127097093Y-120889873D01*
X127097095Y-120889873D01*
X127102263Y-120889936D01*
X127339744Y-120853596D01*
X127451997Y-120816906D01*
X127563183Y-120780566D01*
X127563189Y-120780563D01*
X127568101Y-120778958D01*
X127572687Y-120776571D01*
X127572691Y-120776569D01*
X127776607Y-120670416D01*
X127781200Y-120668025D01*
X127936283Y-120551585D01*
X128002765Y-120526680D01*
X128072161Y-120541672D01*
X128122435Y-120591802D01*
X128129915Y-120608115D01*
X128133731Y-120618293D01*
X128136885Y-120626705D01*
X128224239Y-120743261D01*
X128340795Y-120830615D01*
X128477184Y-120881745D01*
X128539366Y-120888500D01*
X130540634Y-120888500D01*
X130602816Y-120881745D01*
X130739205Y-120830615D01*
X130855761Y-120743261D01*
X130943115Y-120626705D01*
X130994245Y-120490316D01*
X131001000Y-120428134D01*
X131001000Y-119650111D01*
X135712798Y-119650111D01*
X135713751Y-119661704D01*
X135715433Y-119671866D01*
X135771422Y-119894771D01*
X135774741Y-119904519D01*
X135866385Y-120115289D01*
X135871251Y-120124364D01*
X135996085Y-120317327D01*
X136002378Y-120325498D01*
X136157050Y-120495480D01*
X136164583Y-120502506D01*
X136344944Y-120644945D01*
X136353531Y-120650650D01*
X136554722Y-120761714D01*
X136564134Y-120765944D01*
X136780768Y-120842659D01*
X136790739Y-120845293D01*
X136888163Y-120862647D01*
X136901460Y-120861187D01*
X136905543Y-120848096D01*
X137414000Y-120848096D01*
X137417918Y-120861440D01*
X137432194Y-120863427D01*
X137494515Y-120853890D01*
X137504543Y-120851501D01*
X137722988Y-120780102D01*
X137732497Y-120776105D01*
X137936344Y-120669989D01*
X137945069Y-120664495D01*
X138128852Y-120526507D01*
X138136559Y-120519664D01*
X138295339Y-120353509D01*
X138301823Y-120345502D01*
X138324237Y-120312644D01*
X138379148Y-120267641D01*
X138449672Y-120259468D01*
X138513420Y-120290722D01*
X138534116Y-120315204D01*
X138538498Y-120321977D01*
X138700186Y-120499670D01*
X138725503Y-120519664D01*
X138884670Y-120645367D01*
X138884675Y-120645370D01*
X138888724Y-120648568D01*
X138893240Y-120651061D01*
X138893243Y-120651063D01*
X139094526Y-120762177D01*
X139094530Y-120762179D01*
X139099050Y-120764674D01*
X139103919Y-120766398D01*
X139103923Y-120766400D01*
X139320640Y-120843144D01*
X139320644Y-120843145D01*
X139325515Y-120844870D01*
X139330608Y-120845777D01*
X139330611Y-120845778D01*
X139556948Y-120886095D01*
X139556954Y-120886096D01*
X139562037Y-120887001D01*
X139649400Y-120888068D01*
X139797093Y-120889873D01*
X139797095Y-120889873D01*
X139802263Y-120889936D01*
X140039744Y-120853596D01*
X140151997Y-120816906D01*
X140263183Y-120780566D01*
X140263189Y-120780563D01*
X140268101Y-120778958D01*
X140272687Y-120776571D01*
X140272691Y-120776569D01*
X140476607Y-120670416D01*
X140481200Y-120668025D01*
X140636283Y-120551585D01*
X140702765Y-120526680D01*
X140772161Y-120541672D01*
X140822435Y-120591802D01*
X140829915Y-120608115D01*
X140833731Y-120618293D01*
X140836885Y-120626705D01*
X140924239Y-120743261D01*
X141040795Y-120830615D01*
X141177184Y-120881745D01*
X141239366Y-120888500D01*
X143240634Y-120888500D01*
X143302816Y-120881745D01*
X143439205Y-120830615D01*
X143555761Y-120743261D01*
X143643115Y-120626705D01*
X143694245Y-120490316D01*
X143701000Y-120428134D01*
X143701000Y-119650111D01*
X148412798Y-119650111D01*
X148413751Y-119661704D01*
X148415433Y-119671866D01*
X148471422Y-119894771D01*
X148474741Y-119904519D01*
X148566385Y-120115289D01*
X148571251Y-120124364D01*
X148696085Y-120317327D01*
X148702378Y-120325498D01*
X148857050Y-120495480D01*
X148864583Y-120502506D01*
X149044944Y-120644945D01*
X149053531Y-120650650D01*
X149254722Y-120761714D01*
X149264134Y-120765944D01*
X149480768Y-120842659D01*
X149490739Y-120845293D01*
X149588163Y-120862647D01*
X149601460Y-120861187D01*
X149605543Y-120848096D01*
X150114000Y-120848096D01*
X150117918Y-120861440D01*
X150132194Y-120863427D01*
X150194515Y-120853890D01*
X150204543Y-120851501D01*
X150422988Y-120780102D01*
X150432497Y-120776105D01*
X150636344Y-120669989D01*
X150645069Y-120664495D01*
X150828852Y-120526507D01*
X150836559Y-120519664D01*
X150995339Y-120353509D01*
X151001823Y-120345502D01*
X151024237Y-120312644D01*
X151079148Y-120267641D01*
X151149672Y-120259468D01*
X151213420Y-120290722D01*
X151234116Y-120315204D01*
X151238498Y-120321977D01*
X151400186Y-120499670D01*
X151425503Y-120519664D01*
X151584670Y-120645367D01*
X151584675Y-120645370D01*
X151588724Y-120648568D01*
X151593240Y-120651061D01*
X151593243Y-120651063D01*
X151794526Y-120762177D01*
X151794530Y-120762179D01*
X151799050Y-120764674D01*
X151803919Y-120766398D01*
X151803923Y-120766400D01*
X152020640Y-120843144D01*
X152020644Y-120843145D01*
X152025515Y-120844870D01*
X152030608Y-120845777D01*
X152030611Y-120845778D01*
X152256948Y-120886095D01*
X152256954Y-120886096D01*
X152262037Y-120887001D01*
X152349400Y-120888068D01*
X152497093Y-120889873D01*
X152497095Y-120889873D01*
X152502263Y-120889936D01*
X152739744Y-120853596D01*
X152851997Y-120816906D01*
X152963183Y-120780566D01*
X152963189Y-120780563D01*
X152968101Y-120778958D01*
X152972687Y-120776571D01*
X152972691Y-120776569D01*
X153176607Y-120670416D01*
X153181200Y-120668025D01*
X153336283Y-120551585D01*
X153402765Y-120526680D01*
X153472161Y-120541672D01*
X153522435Y-120591802D01*
X153529915Y-120608115D01*
X153533731Y-120618293D01*
X153536885Y-120626705D01*
X153624239Y-120743261D01*
X153740795Y-120830615D01*
X153877184Y-120881745D01*
X153939366Y-120888500D01*
X155940634Y-120888500D01*
X156002816Y-120881745D01*
X156139205Y-120830615D01*
X156255761Y-120743261D01*
X156343115Y-120626705D01*
X156394245Y-120490316D01*
X156401000Y-120428134D01*
X156401000Y-118973160D01*
X156421002Y-118905039D01*
X156437905Y-118884065D01*
X157188676Y-118133295D01*
X157960528Y-117361443D01*
X157966793Y-117355589D01*
X158004664Y-117322552D01*
X158004665Y-117322551D01*
X158010385Y-117317561D01*
X158047136Y-117265271D01*
X158051028Y-117260029D01*
X158090476Y-117209718D01*
X158093600Y-117202799D01*
X158094988Y-117200507D01*
X158103357Y-117185835D01*
X158104622Y-117183475D01*
X158108990Y-117177261D01*
X158132203Y-117117723D01*
X158134759Y-117111642D01*
X158157918Y-117060352D01*
X158161045Y-117053427D01*
X158162430Y-117045954D01*
X158163234Y-117043388D01*
X158167855Y-117027165D01*
X158168520Y-117024573D01*
X158171282Y-117017491D01*
X158179622Y-116954139D01*
X158180654Y-116947623D01*
X158190911Y-116892281D01*
X158192295Y-116884814D01*
X158190987Y-116862119D01*
X158188709Y-116822620D01*
X158188500Y-116815367D01*
X158188500Y-116736878D01*
X158208502Y-116668757D01*
X158242229Y-116633665D01*
X158319789Y-116579357D01*
X158319792Y-116579355D01*
X158324300Y-116576198D01*
X158486198Y-116414300D01*
X158617523Y-116226749D01*
X158619846Y-116221767D01*
X158619849Y-116221762D01*
X158711961Y-116024225D01*
X158711961Y-116024224D01*
X158714284Y-116019243D01*
X158773543Y-115798087D01*
X158793498Y-115570000D01*
X158773543Y-115341913D01*
X158714284Y-115120757D01*
X158711961Y-115115775D01*
X158619849Y-114918238D01*
X158619846Y-114918233D01*
X158617523Y-114913251D01*
X158486198Y-114725700D01*
X158324300Y-114563802D01*
X158319792Y-114560645D01*
X158319789Y-114560643D01*
X158242229Y-114506335D01*
X158197901Y-114450878D01*
X158188500Y-114403122D01*
X158188500Y-112986997D01*
X158173102Y-112859758D01*
X158168940Y-112848742D01*
X158115171Y-112706447D01*
X158112487Y-112699344D01*
X158034634Y-112586067D01*
X158019659Y-112564278D01*
X158019658Y-112564276D01*
X158015357Y-112558019D01*
X158009686Y-112552966D01*
X157892993Y-112448996D01*
X157892990Y-112448994D01*
X157887321Y-112443943D01*
X157879325Y-112439709D01*
X157763226Y-112378238D01*
X157735769Y-112363700D01*
X157718196Y-112359286D01*
X157576822Y-112323775D01*
X157576818Y-112323775D01*
X157569451Y-112321924D01*
X157561852Y-112321884D01*
X157561850Y-112321884D01*
X157490394Y-112321510D01*
X157397969Y-112321026D01*
X157390589Y-112322798D01*
X157390587Y-112322798D01*
X157238602Y-112359286D01*
X157238598Y-112359287D01*
X157231223Y-112361058D01*
X157078839Y-112439709D01*
X156949615Y-112552439D01*
X156851010Y-112692739D01*
X156835346Y-112732915D01*
X156808445Y-112801913D01*
X156788718Y-112852509D01*
X156787726Y-112860042D01*
X156787726Y-112860043D01*
X156786771Y-112867299D01*
X156771500Y-112983294D01*
X156771500Y-114403122D01*
X156751498Y-114471243D01*
X156717771Y-114506335D01*
X156640211Y-114560643D01*
X156640208Y-114560645D01*
X156635700Y-114563802D01*
X156473802Y-114725700D01*
X156342477Y-114913251D01*
X156340154Y-114918233D01*
X156340151Y-114918238D01*
X156248039Y-115115775D01*
X156245716Y-115120757D01*
X156186457Y-115341913D01*
X156166502Y-115570000D01*
X156186457Y-115798087D01*
X156245716Y-116019243D01*
X156248039Y-116024224D01*
X156248039Y-116024225D01*
X156340151Y-116221762D01*
X156340154Y-116221767D01*
X156342477Y-116226749D01*
X156473802Y-116414300D01*
X156599671Y-116540169D01*
X156633697Y-116602481D01*
X156628632Y-116673296D01*
X156599671Y-116718359D01*
X155483435Y-117834595D01*
X155421123Y-117868621D01*
X155394340Y-117871500D01*
X153939366Y-117871500D01*
X153877184Y-117878255D01*
X153740795Y-117929385D01*
X153624239Y-118016739D01*
X153536885Y-118133295D01*
X153529427Y-118153189D01*
X153486787Y-118209953D01*
X153420226Y-118234654D01*
X153350877Y-118219447D01*
X153333353Y-118207842D01*
X153229860Y-118126109D01*
X153211276Y-118111432D01*
X153206748Y-118108932D01*
X153173607Y-118090638D01*
X153123636Y-118040206D01*
X153108500Y-117980329D01*
X153108500Y-113244500D01*
X153128502Y-113176379D01*
X153182158Y-113129886D01*
X153234500Y-113118500D01*
X153298134Y-113118500D01*
X153360316Y-113111745D01*
X153496705Y-113060615D01*
X153613261Y-112973261D01*
X153700615Y-112856705D01*
X153751745Y-112720316D01*
X153758500Y-112658134D01*
X153758500Y-110861866D01*
X153751745Y-110799684D01*
X153700615Y-110663295D01*
X153613261Y-110546739D01*
X153496705Y-110459385D01*
X153476902Y-110451961D01*
X153378203Y-110414960D01*
X153321439Y-110372318D01*
X153296739Y-110305756D01*
X153311947Y-110236408D01*
X153333493Y-110207727D01*
X153434435Y-110107137D01*
X153438096Y-110103489D01*
X153469498Y-110059789D01*
X153565435Y-109926277D01*
X153568453Y-109922077D01*
X153588628Y-109881257D01*
X153665136Y-109726453D01*
X153665137Y-109726451D01*
X153667430Y-109721811D01*
X153732370Y-109508069D01*
X153761529Y-109286590D01*
X153761611Y-109283240D01*
X153763074Y-109223365D01*
X153763074Y-109223361D01*
X153763156Y-109220000D01*
X153744852Y-108997361D01*
X153690431Y-108780702D01*
X153601354Y-108575840D01*
X153561906Y-108514862D01*
X153482822Y-108392617D01*
X153482820Y-108392614D01*
X153480014Y-108388277D01*
X153329670Y-108223051D01*
X153325619Y-108219852D01*
X153325615Y-108219848D01*
X153158414Y-108087800D01*
X153158410Y-108087798D01*
X153154359Y-108084598D01*
X153146304Y-108080151D01*
X153102136Y-108055769D01*
X152958789Y-107976638D01*
X152953920Y-107974914D01*
X152953916Y-107974912D01*
X152753087Y-107903795D01*
X152753083Y-107903794D01*
X152748212Y-107902069D01*
X152743119Y-107901162D01*
X152743116Y-107901161D01*
X152533373Y-107863800D01*
X152533367Y-107863799D01*
X152528284Y-107862894D01*
X152454452Y-107861992D01*
X152310081Y-107860228D01*
X152310079Y-107860228D01*
X152304911Y-107860165D01*
X152084091Y-107893955D01*
X151871756Y-107963357D01*
X151673607Y-108066507D01*
X151669474Y-108069610D01*
X151669471Y-108069612D01*
X151524996Y-108178087D01*
X151494965Y-108200635D01*
X151340629Y-108362138D01*
X151337715Y-108366410D01*
X151337714Y-108366411D01*
X151328300Y-108380211D01*
X151214743Y-108546680D01*
X151167715Y-108647993D01*
X151153554Y-108678502D01*
X151120688Y-108749305D01*
X151060989Y-108964570D01*
X151037251Y-109186695D01*
X151037548Y-109191848D01*
X151037548Y-109191851D01*
X151043011Y-109286590D01*
X151050110Y-109409715D01*
X151051247Y-109414761D01*
X151051248Y-109414767D01*
X151066806Y-109483802D01*
X151099222Y-109627639D01*
X151183266Y-109834616D01*
X151299987Y-110025088D01*
X151446250Y-110193938D01*
X151450230Y-110197242D01*
X151454981Y-110201187D01*
X151494616Y-110260090D01*
X151496113Y-110331071D01*
X151458997Y-110391593D01*
X151418724Y-110416112D01*
X151303295Y-110459385D01*
X151186739Y-110546739D01*
X151099385Y-110663295D01*
X151048255Y-110799684D01*
X151041500Y-110861866D01*
X151041500Y-112658134D01*
X151048255Y-112720316D01*
X151099385Y-112856705D01*
X151186739Y-112973261D01*
X151303295Y-113060615D01*
X151439684Y-113111745D01*
X151501866Y-113118500D01*
X151565500Y-113118500D01*
X151633621Y-113138502D01*
X151680114Y-113192158D01*
X151691500Y-113244500D01*
X151691500Y-117977671D01*
X151671498Y-118045792D01*
X151627315Y-118086115D01*
X151627765Y-118086830D01*
X151623786Y-118089336D01*
X151623675Y-118089437D01*
X151618800Y-118091975D01*
X151426680Y-118236223D01*
X151260699Y-118409912D01*
X151235160Y-118447351D01*
X151180249Y-118492352D01*
X151109725Y-118500523D01*
X151045978Y-118469269D01*
X151025284Y-118444790D01*
X151023915Y-118442674D01*
X151017622Y-118434502D01*
X150862950Y-118264520D01*
X150855417Y-118257494D01*
X150675056Y-118115055D01*
X150666469Y-118109350D01*
X150465278Y-117998286D01*
X150455866Y-117994056D01*
X150239232Y-117917341D01*
X150229261Y-117914707D01*
X150131837Y-117897353D01*
X150118540Y-117898813D01*
X150114000Y-117913370D01*
X150114000Y-120848096D01*
X149605543Y-120848096D01*
X149606000Y-120846630D01*
X149606000Y-119652115D01*
X149601525Y-119636876D01*
X149600135Y-119635671D01*
X149592452Y-119634000D01*
X148429588Y-119634000D01*
X148414859Y-119638325D01*
X148412798Y-119650111D01*
X143701000Y-119650111D01*
X143701000Y-119107987D01*
X148415099Y-119107987D01*
X148417747Y-119122608D01*
X148430124Y-119126000D01*
X149587885Y-119126000D01*
X149603124Y-119121525D01*
X149604329Y-119120135D01*
X149606000Y-119112452D01*
X149606000Y-117911904D01*
X149602082Y-117898560D01*
X149587806Y-117896573D01*
X149525485Y-117906110D01*
X149515457Y-117908499D01*
X149297012Y-117979898D01*
X149287503Y-117983895D01*
X149083656Y-118090011D01*
X149074931Y-118095505D01*
X148891148Y-118233493D01*
X148883441Y-118240336D01*
X148724661Y-118406491D01*
X148718174Y-118414501D01*
X148588670Y-118604347D01*
X148583571Y-118613321D01*
X148486813Y-118821769D01*
X148483250Y-118831456D01*
X148421835Y-119052908D01*
X148419904Y-119063030D01*
X148415099Y-119107987D01*
X143701000Y-119107987D01*
X143701000Y-118973160D01*
X143721002Y-118905039D01*
X143737905Y-118884065D01*
X144488676Y-118133295D01*
X145260528Y-117361443D01*
X145266793Y-117355589D01*
X145304664Y-117322552D01*
X145304665Y-117322551D01*
X145310385Y-117317561D01*
X145347136Y-117265271D01*
X145351028Y-117260029D01*
X145390476Y-117209718D01*
X145393600Y-117202799D01*
X145394988Y-117200507D01*
X145403357Y-117185835D01*
X145404622Y-117183475D01*
X145408990Y-117177261D01*
X145432203Y-117117723D01*
X145434759Y-117111642D01*
X145457918Y-117060352D01*
X145461045Y-117053427D01*
X145462430Y-117045954D01*
X145463234Y-117043388D01*
X145467855Y-117027165D01*
X145468520Y-117024573D01*
X145471282Y-117017491D01*
X145479622Y-116954139D01*
X145480654Y-116947623D01*
X145490911Y-116892281D01*
X145492295Y-116884814D01*
X145490987Y-116862119D01*
X145488709Y-116822620D01*
X145488500Y-116815367D01*
X145488500Y-116736878D01*
X145508502Y-116668757D01*
X145542229Y-116633665D01*
X145619789Y-116579357D01*
X145619792Y-116579355D01*
X145624300Y-116576198D01*
X145786198Y-116414300D01*
X145917523Y-116226749D01*
X145919846Y-116221767D01*
X145919849Y-116221762D01*
X146011961Y-116024225D01*
X146011961Y-116024224D01*
X146014284Y-116019243D01*
X146073543Y-115798087D01*
X146093498Y-115570000D01*
X146073543Y-115341913D01*
X146014284Y-115120757D01*
X146011961Y-115115775D01*
X145919849Y-114918238D01*
X145919846Y-114918233D01*
X145917523Y-114913251D01*
X145786198Y-114725700D01*
X145624300Y-114563802D01*
X145619792Y-114560645D01*
X145619789Y-114560643D01*
X145542229Y-114506335D01*
X145497901Y-114450878D01*
X145488500Y-114403122D01*
X145488500Y-112986997D01*
X145473102Y-112859758D01*
X145468940Y-112848742D01*
X145415171Y-112706447D01*
X145412487Y-112699344D01*
X145334634Y-112586067D01*
X145319659Y-112564278D01*
X145319658Y-112564276D01*
X145315357Y-112558019D01*
X145309686Y-112552966D01*
X145192993Y-112448996D01*
X145192990Y-112448994D01*
X145187321Y-112443943D01*
X145179325Y-112439709D01*
X145063226Y-112378238D01*
X145035769Y-112363700D01*
X145018196Y-112359286D01*
X144876822Y-112323775D01*
X144876818Y-112323775D01*
X144869451Y-112321924D01*
X144861852Y-112321884D01*
X144861850Y-112321884D01*
X144790394Y-112321510D01*
X144697969Y-112321026D01*
X144690589Y-112322798D01*
X144690587Y-112322798D01*
X144538602Y-112359286D01*
X144538598Y-112359287D01*
X144531223Y-112361058D01*
X144378839Y-112439709D01*
X144249615Y-112552439D01*
X144151010Y-112692739D01*
X144135346Y-112732915D01*
X144108445Y-112801913D01*
X144088718Y-112852509D01*
X144087726Y-112860042D01*
X144087726Y-112860043D01*
X144086771Y-112867299D01*
X144071500Y-112983294D01*
X144071500Y-114403122D01*
X144051498Y-114471243D01*
X144017771Y-114506335D01*
X143940211Y-114560643D01*
X143940208Y-114560645D01*
X143935700Y-114563802D01*
X143773802Y-114725700D01*
X143642477Y-114913251D01*
X143640154Y-114918233D01*
X143640151Y-114918238D01*
X143548039Y-115115775D01*
X143545716Y-115120757D01*
X143486457Y-115341913D01*
X143466502Y-115570000D01*
X143486457Y-115798087D01*
X143545716Y-116019243D01*
X143548039Y-116024224D01*
X143548039Y-116024225D01*
X143640151Y-116221762D01*
X143640154Y-116221767D01*
X143642477Y-116226749D01*
X143773802Y-116414300D01*
X143899671Y-116540169D01*
X143933697Y-116602481D01*
X143928632Y-116673296D01*
X143899671Y-116718359D01*
X142783435Y-117834595D01*
X142721123Y-117868621D01*
X142694340Y-117871500D01*
X141239366Y-117871500D01*
X141177184Y-117878255D01*
X141040795Y-117929385D01*
X140924239Y-118016739D01*
X140836885Y-118133295D01*
X140829427Y-118153189D01*
X140786787Y-118209953D01*
X140720226Y-118234654D01*
X140650877Y-118219447D01*
X140633353Y-118207842D01*
X140529860Y-118126109D01*
X140511276Y-118111432D01*
X140466710Y-118086830D01*
X140423606Y-118063035D01*
X140373635Y-118012602D01*
X140358500Y-117952727D01*
X140358500Y-113244500D01*
X140378502Y-113176379D01*
X140432158Y-113129886D01*
X140484500Y-113118500D01*
X140548134Y-113118500D01*
X140610316Y-113111745D01*
X140746705Y-113060615D01*
X140863261Y-112973261D01*
X140950615Y-112856705D01*
X141001745Y-112720316D01*
X141008500Y-112658134D01*
X141008500Y-110861866D01*
X141001745Y-110799684D01*
X140950615Y-110663295D01*
X140863261Y-110546739D01*
X140746705Y-110459385D01*
X140726902Y-110451961D01*
X140628203Y-110414960D01*
X140571439Y-110372318D01*
X140546739Y-110305756D01*
X140561947Y-110236408D01*
X140583493Y-110207727D01*
X140684435Y-110107137D01*
X140688096Y-110103489D01*
X140719498Y-110059789D01*
X140815435Y-109926277D01*
X140818453Y-109922077D01*
X140838628Y-109881257D01*
X140915136Y-109726453D01*
X140915137Y-109726451D01*
X140917430Y-109721811D01*
X140982370Y-109508069D01*
X141011529Y-109286590D01*
X141011611Y-109283240D01*
X141013074Y-109223365D01*
X141013074Y-109223361D01*
X141013156Y-109220000D01*
X140994852Y-108997361D01*
X140940431Y-108780702D01*
X140851354Y-108575840D01*
X140811906Y-108514862D01*
X140732822Y-108392617D01*
X140732820Y-108392614D01*
X140730014Y-108388277D01*
X140579670Y-108223051D01*
X140575619Y-108219852D01*
X140575615Y-108219848D01*
X140408414Y-108087800D01*
X140408410Y-108087798D01*
X140404359Y-108084598D01*
X140396304Y-108080151D01*
X140352136Y-108055769D01*
X140208789Y-107976638D01*
X140203920Y-107974914D01*
X140203916Y-107974912D01*
X140003087Y-107903795D01*
X140003083Y-107903794D01*
X139998212Y-107902069D01*
X139993119Y-107901162D01*
X139993116Y-107901161D01*
X139783373Y-107863800D01*
X139783367Y-107863799D01*
X139778284Y-107862894D01*
X139704452Y-107861992D01*
X139560081Y-107860228D01*
X139560079Y-107860228D01*
X139554911Y-107860165D01*
X139334091Y-107893955D01*
X139121756Y-107963357D01*
X138923607Y-108066507D01*
X138919474Y-108069610D01*
X138919471Y-108069612D01*
X138774996Y-108178087D01*
X138744965Y-108200635D01*
X138590629Y-108362138D01*
X138587715Y-108366410D01*
X138587714Y-108366411D01*
X138578300Y-108380211D01*
X138464743Y-108546680D01*
X138417715Y-108647993D01*
X138403554Y-108678502D01*
X138370688Y-108749305D01*
X138310989Y-108964570D01*
X138287251Y-109186695D01*
X138287548Y-109191848D01*
X138287548Y-109191851D01*
X138293011Y-109286590D01*
X138300110Y-109409715D01*
X138301247Y-109414761D01*
X138301248Y-109414767D01*
X138316806Y-109483802D01*
X138349222Y-109627639D01*
X138433266Y-109834616D01*
X138549987Y-110025088D01*
X138696250Y-110193938D01*
X138700230Y-110197242D01*
X138704981Y-110201187D01*
X138744616Y-110260090D01*
X138746113Y-110331071D01*
X138708997Y-110391593D01*
X138668724Y-110416112D01*
X138553295Y-110459385D01*
X138436739Y-110546739D01*
X138349385Y-110663295D01*
X138298255Y-110799684D01*
X138291500Y-110861866D01*
X138291500Y-112658134D01*
X138298255Y-112720316D01*
X138349385Y-112856705D01*
X138436739Y-112973261D01*
X138553295Y-113060615D01*
X138689684Y-113111745D01*
X138751866Y-113118500D01*
X138815500Y-113118500D01*
X138883621Y-113138502D01*
X138930114Y-113192158D01*
X138941500Y-113244500D01*
X138941500Y-118011973D01*
X138921498Y-118080094D01*
X138891153Y-118112733D01*
X138726680Y-118236223D01*
X138560699Y-118409912D01*
X138535160Y-118447351D01*
X138480249Y-118492352D01*
X138409725Y-118500523D01*
X138345978Y-118469269D01*
X138325284Y-118444790D01*
X138323915Y-118442674D01*
X138317622Y-118434502D01*
X138162950Y-118264520D01*
X138155417Y-118257494D01*
X137975056Y-118115055D01*
X137966469Y-118109350D01*
X137765278Y-117998286D01*
X137755866Y-117994056D01*
X137539232Y-117917341D01*
X137529261Y-117914707D01*
X137431837Y-117897353D01*
X137418540Y-117898813D01*
X137414000Y-117913370D01*
X137414000Y-120848096D01*
X136905543Y-120848096D01*
X136906000Y-120846630D01*
X136906000Y-119652115D01*
X136901525Y-119636876D01*
X136900135Y-119635671D01*
X136892452Y-119634000D01*
X135729588Y-119634000D01*
X135714859Y-119638325D01*
X135712798Y-119650111D01*
X131001000Y-119650111D01*
X131001000Y-119107987D01*
X135715099Y-119107987D01*
X135717747Y-119122608D01*
X135730124Y-119126000D01*
X136887885Y-119126000D01*
X136903124Y-119121525D01*
X136904329Y-119120135D01*
X136906000Y-119112452D01*
X136906000Y-117911904D01*
X136902082Y-117898560D01*
X136887806Y-117896573D01*
X136825485Y-117906110D01*
X136815457Y-117908499D01*
X136597012Y-117979898D01*
X136587503Y-117983895D01*
X136383656Y-118090011D01*
X136374931Y-118095505D01*
X136191148Y-118233493D01*
X136183441Y-118240336D01*
X136024661Y-118406491D01*
X136018174Y-118414501D01*
X135888670Y-118604347D01*
X135883571Y-118613321D01*
X135786813Y-118821769D01*
X135783250Y-118831456D01*
X135721835Y-119052908D01*
X135719904Y-119063030D01*
X135715099Y-119107987D01*
X131001000Y-119107987D01*
X131001000Y-118973160D01*
X131021002Y-118905039D01*
X131037905Y-118884065D01*
X131788676Y-118133295D01*
X132560528Y-117361443D01*
X132566793Y-117355589D01*
X132604664Y-117322552D01*
X132604665Y-117322551D01*
X132610385Y-117317561D01*
X132647136Y-117265271D01*
X132651028Y-117260029D01*
X132690476Y-117209718D01*
X132693600Y-117202799D01*
X132694988Y-117200507D01*
X132703357Y-117185835D01*
X132704622Y-117183475D01*
X132708990Y-117177261D01*
X132732203Y-117117723D01*
X132734759Y-117111642D01*
X132757918Y-117060352D01*
X132761045Y-117053427D01*
X132762430Y-117045954D01*
X132763234Y-117043388D01*
X132767855Y-117027165D01*
X132768520Y-117024573D01*
X132771282Y-117017491D01*
X132779622Y-116954139D01*
X132780654Y-116947623D01*
X132790911Y-116892281D01*
X132792295Y-116884814D01*
X132790987Y-116862119D01*
X132788709Y-116822620D01*
X132788500Y-116815367D01*
X132788500Y-116736878D01*
X132808502Y-116668757D01*
X132842229Y-116633665D01*
X132919789Y-116579357D01*
X132919792Y-116579355D01*
X132924300Y-116576198D01*
X133086198Y-116414300D01*
X133217523Y-116226749D01*
X133219846Y-116221767D01*
X133219849Y-116221762D01*
X133311961Y-116024225D01*
X133311961Y-116024224D01*
X133314284Y-116019243D01*
X133373543Y-115798087D01*
X133393498Y-115570000D01*
X133373543Y-115341913D01*
X133314284Y-115120757D01*
X133311961Y-115115775D01*
X133219849Y-114918238D01*
X133219846Y-114918233D01*
X133217523Y-114913251D01*
X133086198Y-114725700D01*
X132924300Y-114563802D01*
X132919792Y-114560645D01*
X132919789Y-114560643D01*
X132842229Y-114506335D01*
X132797901Y-114450878D01*
X132788500Y-114403122D01*
X132788500Y-112986997D01*
X132773102Y-112859758D01*
X132768940Y-112848742D01*
X132715171Y-112706447D01*
X132712487Y-112699344D01*
X132634634Y-112586067D01*
X132619659Y-112564278D01*
X132619658Y-112564276D01*
X132615357Y-112558019D01*
X132609686Y-112552966D01*
X132492993Y-112448996D01*
X132492990Y-112448994D01*
X132487321Y-112443943D01*
X132479325Y-112439709D01*
X132363226Y-112378238D01*
X132335769Y-112363700D01*
X132318196Y-112359286D01*
X132176822Y-112323775D01*
X132176818Y-112323775D01*
X132169451Y-112321924D01*
X132161852Y-112321884D01*
X132161850Y-112321884D01*
X132090394Y-112321510D01*
X131997969Y-112321026D01*
X131990589Y-112322798D01*
X131990587Y-112322798D01*
X131838602Y-112359286D01*
X131838598Y-112359287D01*
X131831223Y-112361058D01*
X131678839Y-112439709D01*
X131549615Y-112552439D01*
X131451010Y-112692739D01*
X131435346Y-112732915D01*
X131408445Y-112801913D01*
X131388718Y-112852509D01*
X131387726Y-112860042D01*
X131387726Y-112860043D01*
X131386771Y-112867299D01*
X131371500Y-112983294D01*
X131371500Y-114403122D01*
X131351498Y-114471243D01*
X131317771Y-114506335D01*
X131240211Y-114560643D01*
X131240208Y-114560645D01*
X131235700Y-114563802D01*
X131073802Y-114725700D01*
X130942477Y-114913251D01*
X130940154Y-114918233D01*
X130940151Y-114918238D01*
X130848039Y-115115775D01*
X130845716Y-115120757D01*
X130786457Y-115341913D01*
X130766502Y-115570000D01*
X130786457Y-115798087D01*
X130845716Y-116019243D01*
X130848039Y-116024224D01*
X130848039Y-116024225D01*
X130940151Y-116221762D01*
X130940154Y-116221767D01*
X130942477Y-116226749D01*
X131073802Y-116414300D01*
X131199671Y-116540169D01*
X131233697Y-116602481D01*
X131228632Y-116673296D01*
X131199671Y-116718359D01*
X130083435Y-117834595D01*
X130021123Y-117868621D01*
X129994340Y-117871500D01*
X128539366Y-117871500D01*
X128477184Y-117878255D01*
X128340795Y-117929385D01*
X128224239Y-118016739D01*
X128136885Y-118133295D01*
X128129427Y-118153189D01*
X128086787Y-118209953D01*
X128020226Y-118234654D01*
X127950877Y-118219447D01*
X127933353Y-118207842D01*
X127829860Y-118126109D01*
X127811276Y-118111432D01*
X127806748Y-118108932D01*
X127773607Y-118090638D01*
X127723636Y-118040206D01*
X127708500Y-117980329D01*
X127708500Y-113244500D01*
X127728502Y-113176379D01*
X127782158Y-113129886D01*
X127834500Y-113118500D01*
X127898134Y-113118500D01*
X127960316Y-113111745D01*
X128096705Y-113060615D01*
X128213261Y-112973261D01*
X128300615Y-112856705D01*
X128351745Y-112720316D01*
X128358500Y-112658134D01*
X128358500Y-110861866D01*
X128351745Y-110799684D01*
X128300615Y-110663295D01*
X128213261Y-110546739D01*
X128096705Y-110459385D01*
X128076902Y-110451961D01*
X127978203Y-110414960D01*
X127921439Y-110372318D01*
X127896739Y-110305756D01*
X127911947Y-110236408D01*
X127933493Y-110207727D01*
X128034435Y-110107137D01*
X128038096Y-110103489D01*
X128069498Y-110059789D01*
X128165435Y-109926277D01*
X128168453Y-109922077D01*
X128188628Y-109881257D01*
X128265136Y-109726453D01*
X128265137Y-109726451D01*
X128267430Y-109721811D01*
X128332370Y-109508069D01*
X128361529Y-109286590D01*
X128361611Y-109283240D01*
X128363074Y-109223365D01*
X128363074Y-109223361D01*
X128363156Y-109220000D01*
X128344852Y-108997361D01*
X128290431Y-108780702D01*
X128201354Y-108575840D01*
X128161906Y-108514862D01*
X128082822Y-108392617D01*
X128082820Y-108392614D01*
X128080014Y-108388277D01*
X127929670Y-108223051D01*
X127925619Y-108219852D01*
X127925615Y-108219848D01*
X127758414Y-108087800D01*
X127758410Y-108087798D01*
X127754359Y-108084598D01*
X127746304Y-108080151D01*
X127702136Y-108055769D01*
X127558789Y-107976638D01*
X127553920Y-107974914D01*
X127553916Y-107974912D01*
X127353087Y-107903795D01*
X127353083Y-107903794D01*
X127348212Y-107902069D01*
X127343119Y-107901162D01*
X127343116Y-107901161D01*
X127133373Y-107863800D01*
X127133367Y-107863799D01*
X127128284Y-107862894D01*
X127054452Y-107861992D01*
X126910081Y-107860228D01*
X126910079Y-107860228D01*
X126904911Y-107860165D01*
X126684091Y-107893955D01*
X126471756Y-107963357D01*
X126273607Y-108066507D01*
X126269474Y-108069610D01*
X126269471Y-108069612D01*
X126124996Y-108178087D01*
X126094965Y-108200635D01*
X125940629Y-108362138D01*
X125937715Y-108366410D01*
X125937714Y-108366411D01*
X125928300Y-108380211D01*
X125814743Y-108546680D01*
X125767715Y-108647993D01*
X125753554Y-108678502D01*
X125720688Y-108749305D01*
X125660989Y-108964570D01*
X125637251Y-109186695D01*
X125637548Y-109191848D01*
X125637548Y-109191851D01*
X125643011Y-109286590D01*
X125650110Y-109409715D01*
X125651247Y-109414761D01*
X125651248Y-109414767D01*
X125666806Y-109483802D01*
X125699222Y-109627639D01*
X125783266Y-109834616D01*
X125899987Y-110025088D01*
X126046250Y-110193938D01*
X126050230Y-110197242D01*
X126054981Y-110201187D01*
X126094616Y-110260090D01*
X126096113Y-110331071D01*
X126058997Y-110391593D01*
X126018724Y-110416112D01*
X125903295Y-110459385D01*
X125786739Y-110546739D01*
X125699385Y-110663295D01*
X125648255Y-110799684D01*
X125641500Y-110861866D01*
X125641500Y-112658134D01*
X125648255Y-112720316D01*
X125699385Y-112856705D01*
X125786739Y-112973261D01*
X125903295Y-113060615D01*
X126039684Y-113111745D01*
X126101866Y-113118500D01*
X126165500Y-113118500D01*
X126233621Y-113138502D01*
X126280114Y-113192158D01*
X126291500Y-113244500D01*
X126291500Y-117977671D01*
X126271498Y-118045792D01*
X126227315Y-118086115D01*
X126227765Y-118086830D01*
X126223786Y-118089336D01*
X126223675Y-118089437D01*
X126218800Y-118091975D01*
X126026680Y-118236223D01*
X125860699Y-118409912D01*
X125835160Y-118447351D01*
X125780249Y-118492352D01*
X125709725Y-118500523D01*
X125645978Y-118469269D01*
X125625284Y-118444790D01*
X125623915Y-118442674D01*
X125617622Y-118434502D01*
X125462950Y-118264520D01*
X125455417Y-118257494D01*
X125275056Y-118115055D01*
X125266469Y-118109350D01*
X125065278Y-117998286D01*
X125055866Y-117994056D01*
X124839232Y-117917341D01*
X124829261Y-117914707D01*
X124731837Y-117897353D01*
X124718540Y-117898813D01*
X124714000Y-117913370D01*
X124714000Y-120848096D01*
X124205543Y-120848096D01*
X124206000Y-120846630D01*
X124206000Y-119652115D01*
X124201525Y-119636876D01*
X124200135Y-119635671D01*
X124192452Y-119634000D01*
X123029588Y-119634000D01*
X123014859Y-119638325D01*
X123012798Y-119650111D01*
X92248500Y-119650111D01*
X92248500Y-119107987D01*
X123015099Y-119107987D01*
X123017747Y-119122608D01*
X123030124Y-119126000D01*
X124187885Y-119126000D01*
X124203124Y-119121525D01*
X124204329Y-119120135D01*
X124206000Y-119112452D01*
X124206000Y-117911904D01*
X124202082Y-117898560D01*
X124187806Y-117896573D01*
X124125485Y-117906110D01*
X124115457Y-117908499D01*
X123897012Y-117979898D01*
X123887503Y-117983895D01*
X123683656Y-118090011D01*
X123674931Y-118095505D01*
X123491148Y-118233493D01*
X123483441Y-118240336D01*
X123324661Y-118406491D01*
X123318174Y-118414501D01*
X123188670Y-118604347D01*
X123183571Y-118613321D01*
X123086813Y-118821769D01*
X123083250Y-118831456D01*
X123021835Y-119052908D01*
X123019904Y-119063030D01*
X123015099Y-119107987D01*
X92248500Y-119107987D01*
X92248500Y-115867085D01*
X92268502Y-115798964D01*
X92322158Y-115752471D01*
X92392432Y-115742367D01*
X92457012Y-115771861D01*
X92496207Y-115834474D01*
X92545716Y-116019243D01*
X92548039Y-116024224D01*
X92548039Y-116024225D01*
X92640151Y-116221762D01*
X92640154Y-116221767D01*
X92642477Y-116226749D01*
X92773802Y-116414300D01*
X92935700Y-116576198D01*
X92940208Y-116579355D01*
X92940211Y-116579357D01*
X92973236Y-116602481D01*
X93123251Y-116707523D01*
X93128233Y-116709846D01*
X93128238Y-116709849D01*
X93186203Y-116736878D01*
X93330757Y-116804284D01*
X93336065Y-116805706D01*
X93336067Y-116805707D01*
X93546598Y-116862119D01*
X93546600Y-116862119D01*
X93551913Y-116863543D01*
X93651480Y-116872254D01*
X93720149Y-116878262D01*
X93720156Y-116878262D01*
X93722873Y-116878500D01*
X94237127Y-116878500D01*
X94239844Y-116878262D01*
X94239851Y-116878262D01*
X94308520Y-116872254D01*
X94408087Y-116863543D01*
X94413400Y-116862119D01*
X94413402Y-116862119D01*
X94623933Y-116805707D01*
X94623935Y-116805706D01*
X94629243Y-116804284D01*
X94773797Y-116736878D01*
X94831762Y-116709849D01*
X94831767Y-116709846D01*
X94836749Y-116707523D01*
X94986764Y-116602481D01*
X95019789Y-116579357D01*
X95019792Y-116579355D01*
X95024300Y-116576198D01*
X95186198Y-116414300D01*
X95317523Y-116226749D01*
X95319846Y-116221767D01*
X95319849Y-116221762D01*
X95411961Y-116024225D01*
X95411961Y-116024224D01*
X95414284Y-116019243D01*
X95473543Y-115798087D01*
X95493498Y-115570000D01*
X115326502Y-115570000D01*
X115346457Y-115798087D01*
X115405716Y-116019243D01*
X115408039Y-116024224D01*
X115408039Y-116024225D01*
X115500151Y-116221762D01*
X115500154Y-116221767D01*
X115502477Y-116226749D01*
X115633802Y-116414300D01*
X115795700Y-116576198D01*
X115800208Y-116579355D01*
X115800211Y-116579357D01*
X115833236Y-116602481D01*
X115983251Y-116707523D01*
X115988233Y-116709846D01*
X115988238Y-116709849D01*
X116046203Y-116736878D01*
X116190757Y-116804284D01*
X116196065Y-116805706D01*
X116196067Y-116805707D01*
X116406598Y-116862119D01*
X116406600Y-116862119D01*
X116411913Y-116863543D01*
X116511480Y-116872254D01*
X116580149Y-116878262D01*
X116580156Y-116878262D01*
X116582873Y-116878500D01*
X117097127Y-116878500D01*
X117099844Y-116878262D01*
X117099851Y-116878262D01*
X117168520Y-116872254D01*
X117268087Y-116863543D01*
X117273400Y-116862119D01*
X117273402Y-116862119D01*
X117483933Y-116805707D01*
X117483935Y-116805706D01*
X117489243Y-116804284D01*
X117633797Y-116736878D01*
X117691762Y-116709849D01*
X117691767Y-116709846D01*
X117696749Y-116707523D01*
X117846764Y-116602481D01*
X117879789Y-116579357D01*
X117879792Y-116579355D01*
X117884300Y-116576198D01*
X118046198Y-116414300D01*
X118177523Y-116226749D01*
X118179846Y-116221767D01*
X118179849Y-116221762D01*
X118271961Y-116024225D01*
X118271961Y-116024224D01*
X118274284Y-116019243D01*
X118333543Y-115798087D01*
X118353498Y-115570000D01*
X118333543Y-115341913D01*
X118274284Y-115120757D01*
X118271961Y-115115775D01*
X118179849Y-114918238D01*
X118179846Y-114918233D01*
X118177523Y-114913251D01*
X118046198Y-114725700D01*
X117884300Y-114563802D01*
X117879792Y-114560645D01*
X117879789Y-114560643D01*
X117752112Y-114471243D01*
X117696749Y-114432477D01*
X117691767Y-114430154D01*
X117691762Y-114430151D01*
X117656951Y-114413919D01*
X117603666Y-114367002D01*
X117584205Y-114298725D01*
X117604747Y-114230765D01*
X117656951Y-114185529D01*
X117691511Y-114169414D01*
X117701007Y-114163931D01*
X117879467Y-114038972D01*
X117887875Y-114031916D01*
X118041916Y-113877875D01*
X118048972Y-113869467D01*
X118173931Y-113691007D01*
X118179414Y-113681511D01*
X118271490Y-113484053D01*
X118275236Y-113473761D01*
X118321394Y-113301497D01*
X118321058Y-113287401D01*
X118313116Y-113284000D01*
X115372033Y-113284000D01*
X115358502Y-113287973D01*
X115357273Y-113296522D01*
X115404764Y-113473761D01*
X115408510Y-113484053D01*
X115500586Y-113681511D01*
X115506069Y-113691007D01*
X115631028Y-113869467D01*
X115638084Y-113877875D01*
X115792125Y-114031916D01*
X115800533Y-114038972D01*
X115978993Y-114163931D01*
X115988489Y-114169414D01*
X116023049Y-114185529D01*
X116076334Y-114232446D01*
X116095795Y-114300723D01*
X116075253Y-114368683D01*
X116023049Y-114413919D01*
X115988238Y-114430151D01*
X115988233Y-114430154D01*
X115983251Y-114432477D01*
X115927888Y-114471243D01*
X115800211Y-114560643D01*
X115800208Y-114560645D01*
X115795700Y-114563802D01*
X115633802Y-114725700D01*
X115502477Y-114913251D01*
X115500154Y-114918233D01*
X115500151Y-114918238D01*
X115408039Y-115115775D01*
X115405716Y-115120757D01*
X115346457Y-115341913D01*
X115326502Y-115570000D01*
X95493498Y-115570000D01*
X95473543Y-115341913D01*
X95414284Y-115120757D01*
X95411961Y-115115775D01*
X95319849Y-114918238D01*
X95319846Y-114918233D01*
X95317523Y-114913251D01*
X95186198Y-114725700D01*
X95024300Y-114563802D01*
X95019792Y-114560645D01*
X95019789Y-114560643D01*
X94892112Y-114471243D01*
X94836749Y-114432477D01*
X94831767Y-114430154D01*
X94831762Y-114430151D01*
X94797543Y-114414195D01*
X94744258Y-114367278D01*
X94724797Y-114299001D01*
X94745339Y-114231041D01*
X94797543Y-114185805D01*
X94831762Y-114169849D01*
X94831767Y-114169846D01*
X94836749Y-114167523D01*
X94941611Y-114094098D01*
X95019789Y-114039357D01*
X95019792Y-114039355D01*
X95024300Y-114036198D01*
X95186198Y-113874300D01*
X95317523Y-113686749D01*
X95319846Y-113681767D01*
X95319849Y-113681762D01*
X95411961Y-113484225D01*
X95411961Y-113484224D01*
X95414284Y-113479243D01*
X95473543Y-113258087D01*
X95493498Y-113030000D01*
X95473543Y-112801913D01*
X95442624Y-112686523D01*
X95415707Y-112586067D01*
X95415706Y-112586065D01*
X95414284Y-112580757D01*
X95401079Y-112552439D01*
X95319849Y-112378238D01*
X95319846Y-112378233D01*
X95317523Y-112373251D01*
X95186198Y-112185700D01*
X95024300Y-112023802D01*
X95019792Y-112020645D01*
X95019789Y-112020643D01*
X94941611Y-111965902D01*
X94836749Y-111892477D01*
X94831767Y-111890154D01*
X94831762Y-111890151D01*
X94797543Y-111874195D01*
X94744258Y-111827278D01*
X94724797Y-111759001D01*
X94745339Y-111691041D01*
X94797543Y-111645805D01*
X94831762Y-111629849D01*
X94831767Y-111629846D01*
X94836749Y-111627523D01*
X94941611Y-111554098D01*
X95019789Y-111499357D01*
X95019792Y-111499355D01*
X95024300Y-111496198D01*
X95186198Y-111334300D01*
X95317523Y-111146749D01*
X95319846Y-111141767D01*
X95319849Y-111141762D01*
X95411961Y-110944225D01*
X95411961Y-110944224D01*
X95414284Y-110939243D01*
X95435928Y-110858469D01*
X95472119Y-110723402D01*
X95472119Y-110723400D01*
X95473543Y-110718087D01*
X95493498Y-110490000D01*
X95473543Y-110261913D01*
X95459024Y-110207727D01*
X95415707Y-110046067D01*
X95415706Y-110046065D01*
X95414284Y-110040757D01*
X95408797Y-110028990D01*
X95319849Y-109838238D01*
X95319846Y-109838233D01*
X95317523Y-109833251D01*
X95236023Y-109716857D01*
X95189357Y-109650211D01*
X95189355Y-109650208D01*
X95186198Y-109645700D01*
X95024300Y-109483802D01*
X95019792Y-109480645D01*
X95019789Y-109480643D01*
X94911112Y-109404547D01*
X94836749Y-109352477D01*
X94831767Y-109350154D01*
X94831762Y-109350151D01*
X94797543Y-109334195D01*
X94744258Y-109287278D01*
X94724797Y-109219001D01*
X94745339Y-109151041D01*
X94797543Y-109105805D01*
X94831762Y-109089849D01*
X94831767Y-109089846D01*
X94836749Y-109087523D01*
X94972681Y-108992342D01*
X95019789Y-108959357D01*
X95019792Y-108959355D01*
X95024300Y-108956198D01*
X95186198Y-108794300D01*
X95192206Y-108785720D01*
X95243665Y-108712229D01*
X95299122Y-108667901D01*
X95346878Y-108658500D01*
X96174339Y-108658500D01*
X96242460Y-108678502D01*
X96263434Y-108695405D01*
X96460018Y-108891989D01*
X96494044Y-108954301D01*
X96496444Y-108992063D01*
X96476502Y-109220000D01*
X96496457Y-109448087D01*
X96497881Y-109453400D01*
X96497881Y-109453402D01*
X96549408Y-109645700D01*
X96555716Y-109669243D01*
X96558039Y-109674224D01*
X96558039Y-109674225D01*
X96650151Y-109871762D01*
X96650154Y-109871767D01*
X96652477Y-109876749D01*
X96655634Y-109881257D01*
X96776168Y-110053397D01*
X96783802Y-110064300D01*
X96945700Y-110226198D01*
X96950208Y-110229355D01*
X96950211Y-110229357D01*
X96995649Y-110261173D01*
X97133251Y-110357523D01*
X97138233Y-110359846D01*
X97138238Y-110359849D01*
X97258896Y-110416112D01*
X97340757Y-110454284D01*
X97346065Y-110455706D01*
X97346067Y-110455707D01*
X97556598Y-110512119D01*
X97556600Y-110512119D01*
X97561913Y-110513543D01*
X97790000Y-110533498D01*
X98018087Y-110513543D01*
X98023400Y-110512119D01*
X98023402Y-110512119D01*
X98233933Y-110455707D01*
X98233935Y-110455706D01*
X98239243Y-110454284D01*
X98321104Y-110416112D01*
X98441762Y-110359849D01*
X98441767Y-110359846D01*
X98446749Y-110357523D01*
X98584351Y-110261173D01*
X98629789Y-110229357D01*
X98629792Y-110229355D01*
X98634300Y-110226198D01*
X98796198Y-110064300D01*
X98803833Y-110053397D01*
X98924366Y-109881257D01*
X98927523Y-109876749D01*
X98929846Y-109871767D01*
X98929849Y-109871762D01*
X99021961Y-109674225D01*
X99021961Y-109674224D01*
X99024284Y-109669243D01*
X99030593Y-109645700D01*
X99082119Y-109453402D01*
X99082119Y-109453400D01*
X99083543Y-109448087D01*
X99103498Y-109220000D01*
X109176502Y-109220000D01*
X109196457Y-109448087D01*
X109197881Y-109453400D01*
X109197881Y-109453402D01*
X109249408Y-109645700D01*
X109255716Y-109669243D01*
X109258039Y-109674224D01*
X109258039Y-109674225D01*
X109350151Y-109871762D01*
X109350154Y-109871767D01*
X109352477Y-109876749D01*
X109355634Y-109881257D01*
X109476168Y-110053397D01*
X109483802Y-110064300D01*
X109645700Y-110226198D01*
X109650208Y-110229355D01*
X109650211Y-110229357D01*
X109695649Y-110261173D01*
X109833251Y-110357523D01*
X109838233Y-110359846D01*
X109838238Y-110359849D01*
X109958896Y-110416112D01*
X110040757Y-110454284D01*
X110046065Y-110455706D01*
X110046067Y-110455707D01*
X110256598Y-110512119D01*
X110256600Y-110512119D01*
X110261913Y-110513543D01*
X110490000Y-110533498D01*
X110718087Y-110513543D01*
X110723400Y-110512119D01*
X110723402Y-110512119D01*
X110805951Y-110490000D01*
X115326502Y-110490000D01*
X115346457Y-110718087D01*
X115347881Y-110723400D01*
X115347881Y-110723402D01*
X115384073Y-110858469D01*
X115405716Y-110939243D01*
X115408039Y-110944224D01*
X115408039Y-110944225D01*
X115500151Y-111141762D01*
X115500154Y-111141767D01*
X115502477Y-111146749D01*
X115633802Y-111334300D01*
X115795700Y-111496198D01*
X115800208Y-111499355D01*
X115800211Y-111499357D01*
X115878389Y-111554098D01*
X115983251Y-111627523D01*
X115988233Y-111629846D01*
X115988238Y-111629849D01*
X116023049Y-111646081D01*
X116076334Y-111692998D01*
X116095795Y-111761275D01*
X116075253Y-111829235D01*
X116023049Y-111874471D01*
X115988489Y-111890586D01*
X115978993Y-111896069D01*
X115800533Y-112021028D01*
X115792125Y-112028084D01*
X115638084Y-112182125D01*
X115631028Y-112190533D01*
X115506069Y-112368993D01*
X115500586Y-112378489D01*
X115408510Y-112575947D01*
X115404764Y-112586239D01*
X115358606Y-112758503D01*
X115358942Y-112772599D01*
X115366884Y-112776000D01*
X118307967Y-112776000D01*
X118321498Y-112772027D01*
X118322727Y-112763478D01*
X118275236Y-112586239D01*
X118271490Y-112575947D01*
X118179414Y-112378489D01*
X118173931Y-112368993D01*
X118048972Y-112190533D01*
X118041916Y-112182125D01*
X117887875Y-112028084D01*
X117879467Y-112021028D01*
X117701007Y-111896069D01*
X117691511Y-111890586D01*
X117656951Y-111874471D01*
X117603666Y-111827554D01*
X117584205Y-111759277D01*
X117604747Y-111691317D01*
X117656951Y-111646081D01*
X117691762Y-111629849D01*
X117691767Y-111629846D01*
X117696749Y-111627523D01*
X117801611Y-111554098D01*
X117879789Y-111499357D01*
X117879792Y-111499355D01*
X117884300Y-111496198D01*
X118046198Y-111334300D01*
X118177523Y-111146749D01*
X118179846Y-111141767D01*
X118179849Y-111141762D01*
X118271961Y-110944225D01*
X118271961Y-110944224D01*
X118274284Y-110939243D01*
X118295928Y-110858469D01*
X118332119Y-110723402D01*
X118332119Y-110723400D01*
X118333543Y-110718087D01*
X118353498Y-110490000D01*
X118333543Y-110261913D01*
X118315055Y-110192915D01*
X118296690Y-110124374D01*
X118298380Y-110053397D01*
X118329302Y-110002668D01*
X121711565Y-106620405D01*
X121773877Y-106586379D01*
X121800660Y-106583500D01*
X141746088Y-106583500D01*
X141754658Y-106583792D01*
X141804776Y-106587209D01*
X141804780Y-106587209D01*
X141812352Y-106587725D01*
X141819829Y-106586420D01*
X141819830Y-106586420D01*
X141846308Y-106581799D01*
X141875303Y-106576738D01*
X141881821Y-106575777D01*
X141945242Y-106568102D01*
X141952343Y-106565419D01*
X141954952Y-106564778D01*
X141971262Y-106560315D01*
X141973798Y-106559550D01*
X141981284Y-106558243D01*
X142039800Y-106532556D01*
X142045904Y-106530065D01*
X142098548Y-106510173D01*
X142098549Y-106510172D01*
X142105656Y-106507487D01*
X142111919Y-106503183D01*
X142114285Y-106501946D01*
X142129097Y-106493701D01*
X142131351Y-106492368D01*
X142138305Y-106489315D01*
X142189002Y-106450413D01*
X142194332Y-106446541D01*
X142240720Y-106414661D01*
X142240725Y-106414656D01*
X142246981Y-106410357D01*
X142288436Y-106363829D01*
X142293416Y-106358554D01*
X144451988Y-104199982D01*
X144514300Y-104165956D01*
X144552063Y-104163556D01*
X144780000Y-104183498D01*
X145008087Y-104163543D01*
X145013400Y-104162119D01*
X145013402Y-104162119D01*
X145223933Y-104105707D01*
X145223935Y-104105706D01*
X145229243Y-104104284D01*
X145234225Y-104101961D01*
X145431762Y-104009849D01*
X145431767Y-104009846D01*
X145436749Y-104007523D01*
X145573294Y-103911913D01*
X145619789Y-103879357D01*
X145619792Y-103879355D01*
X145624300Y-103876198D01*
X145786198Y-103714300D01*
X145806172Y-103685775D01*
X145867281Y-103598502D01*
X145917523Y-103526749D01*
X145919846Y-103521767D01*
X145919849Y-103521762D01*
X146011961Y-103324225D01*
X146011961Y-103324224D01*
X146014284Y-103319243D01*
X146020593Y-103295700D01*
X146072119Y-103103402D01*
X146072119Y-103103400D01*
X146073543Y-103098087D01*
X146093498Y-102870000D01*
X146073543Y-102641913D01*
X146014284Y-102420757D01*
X145997086Y-102383876D01*
X145919849Y-102218238D01*
X145919846Y-102218233D01*
X145917523Y-102213251D01*
X145786198Y-102025700D01*
X145624300Y-101863802D01*
X145619792Y-101860645D01*
X145619789Y-101860643D01*
X145515634Y-101787713D01*
X145471306Y-101732256D01*
X145463997Y-101661636D01*
X145496028Y-101598276D01*
X145557229Y-101562291D01*
X145587905Y-101558500D01*
X155114340Y-101558500D01*
X155182461Y-101578502D01*
X155203431Y-101595401D01*
X156150020Y-102541991D01*
X156184044Y-102604301D01*
X156186444Y-102642063D01*
X156166502Y-102870000D01*
X156186457Y-103098087D01*
X156187881Y-103103400D01*
X156187881Y-103103402D01*
X156239408Y-103295700D01*
X156245716Y-103319243D01*
X156248039Y-103324224D01*
X156248039Y-103324225D01*
X156340151Y-103521762D01*
X156340154Y-103521767D01*
X156342477Y-103526749D01*
X156392719Y-103598502D01*
X156453829Y-103685775D01*
X156473802Y-103714300D01*
X156635700Y-103876198D01*
X156640208Y-103879355D01*
X156640211Y-103879357D01*
X156686706Y-103911913D01*
X156823251Y-104007523D01*
X156828233Y-104009846D01*
X156828238Y-104009849D01*
X157025775Y-104101961D01*
X157030757Y-104104284D01*
X157036065Y-104105706D01*
X157036067Y-104105707D01*
X157246598Y-104162119D01*
X157246600Y-104162119D01*
X157251913Y-104163543D01*
X157480000Y-104183498D01*
X157708087Y-104163543D01*
X157713400Y-104162119D01*
X157713402Y-104162119D01*
X157923933Y-104105707D01*
X157923935Y-104105706D01*
X157929243Y-104104284D01*
X157934225Y-104101961D01*
X158131762Y-104009849D01*
X158131767Y-104009846D01*
X158136749Y-104007523D01*
X158273294Y-103911913D01*
X158319789Y-103879357D01*
X158319792Y-103879355D01*
X158324300Y-103876198D01*
X158486198Y-103714300D01*
X158506172Y-103685775D01*
X158567281Y-103598502D01*
X158617523Y-103526749D01*
X158619846Y-103521767D01*
X158619849Y-103521762D01*
X158711961Y-103324225D01*
X158711961Y-103324224D01*
X158714284Y-103319243D01*
X158720593Y-103295700D01*
X158772119Y-103103402D01*
X158772119Y-103103400D01*
X158773543Y-103098087D01*
X158793498Y-102870000D01*
X158773543Y-102641913D01*
X158714284Y-102420757D01*
X158697086Y-102383876D01*
X158619849Y-102218238D01*
X158619846Y-102218233D01*
X158617523Y-102213251D01*
X158486198Y-102025700D01*
X158324300Y-101863802D01*
X158319792Y-101860645D01*
X158319789Y-101860643D01*
X158186070Y-101767012D01*
X158136749Y-101732477D01*
X158131767Y-101730154D01*
X158131762Y-101730151D01*
X157934225Y-101638039D01*
X157934224Y-101638039D01*
X157929243Y-101635716D01*
X157923935Y-101634294D01*
X157923933Y-101634293D01*
X157713402Y-101577881D01*
X157713400Y-101577881D01*
X157708087Y-101576457D01*
X157480000Y-101556502D01*
X157252064Y-101576444D01*
X157182460Y-101562455D01*
X157151988Y-101540018D01*
X155981450Y-100369480D01*
X155975596Y-100363215D01*
X155973812Y-100361170D01*
X155937561Y-100319615D01*
X155885280Y-100282871D01*
X155879986Y-100278939D01*
X155835693Y-100244209D01*
X155829718Y-100239524D01*
X155822802Y-100236401D01*
X155820516Y-100235017D01*
X155805835Y-100226643D01*
X155803475Y-100225378D01*
X155797261Y-100221010D01*
X155790182Y-100218250D01*
X155790180Y-100218249D01*
X155737725Y-100197798D01*
X155731656Y-100195247D01*
X155673427Y-100168955D01*
X155665960Y-100167571D01*
X155663405Y-100166770D01*
X155647152Y-100162141D01*
X155644572Y-100161478D01*
X155637491Y-100158718D01*
X155629960Y-100157727D01*
X155629958Y-100157726D01*
X155600339Y-100153827D01*
X155574139Y-100150378D01*
X155567641Y-100149348D01*
X155504814Y-100137704D01*
X155497234Y-100138141D01*
X155497233Y-100138141D01*
X155442608Y-100141291D01*
X155435354Y-100141500D01*
X121428927Y-100141500D01*
X121420358Y-100141208D01*
X121370225Y-100137790D01*
X121370221Y-100137790D01*
X121362648Y-100137274D01*
X121299681Y-100148264D01*
X121293169Y-100149224D01*
X121229758Y-100156898D01*
X121222657Y-100159581D01*
X121220048Y-100160222D01*
X121203715Y-100164691D01*
X121201195Y-100165452D01*
X121193717Y-100166757D01*
X121186765Y-100169809D01*
X121186764Y-100169809D01*
X121135204Y-100192441D01*
X121129099Y-100194932D01*
X121076456Y-100214825D01*
X121076452Y-100214827D01*
X121069344Y-100217513D01*
X121063083Y-100221816D01*
X121060717Y-100223053D01*
X121045937Y-100231280D01*
X121043652Y-100232631D01*
X121036695Y-100235685D01*
X121030675Y-100240305D01*
X121030669Y-100240308D01*
X120999542Y-100264194D01*
X120985998Y-100274587D01*
X120980668Y-100278459D01*
X120934280Y-100310339D01*
X120934275Y-100310344D01*
X120928019Y-100314643D01*
X120922968Y-100320313D01*
X120922966Y-100320314D01*
X120886565Y-100361170D01*
X120881584Y-100366446D01*
X118545138Y-102702892D01*
X118482826Y-102736918D01*
X118412011Y-102731853D01*
X118355175Y-102689306D01*
X118334539Y-102641646D01*
X118333543Y-102641913D01*
X118275707Y-102426067D01*
X118275706Y-102426065D01*
X118274284Y-102420757D01*
X118257086Y-102383876D01*
X118179849Y-102218238D01*
X118179846Y-102218233D01*
X118177523Y-102213251D01*
X118046198Y-102025700D01*
X117884300Y-101863802D01*
X117879792Y-101860645D01*
X117879789Y-101860643D01*
X117746070Y-101767012D01*
X117696749Y-101732477D01*
X117691767Y-101730154D01*
X117691762Y-101730151D01*
X117657543Y-101714195D01*
X117604258Y-101667278D01*
X117584797Y-101599001D01*
X117605339Y-101531041D01*
X117657543Y-101485805D01*
X117691762Y-101469849D01*
X117691767Y-101469846D01*
X117696749Y-101467523D01*
X117801611Y-101394098D01*
X117879789Y-101339357D01*
X117879792Y-101339355D01*
X117884300Y-101336198D01*
X118046198Y-101174300D01*
X118177523Y-100986749D01*
X118179846Y-100981767D01*
X118179849Y-100981762D01*
X118271961Y-100784225D01*
X118271961Y-100784224D01*
X118274284Y-100779243D01*
X118333543Y-100558087D01*
X118353498Y-100330000D01*
X118333543Y-100101913D01*
X118274284Y-99880757D01*
X118271961Y-99875775D01*
X118179849Y-99678238D01*
X118179846Y-99678233D01*
X118177523Y-99673251D01*
X118046198Y-99485700D01*
X117884300Y-99323802D01*
X117879792Y-99320645D01*
X117879789Y-99320643D01*
X117757805Y-99235229D01*
X117696749Y-99192477D01*
X117691767Y-99190154D01*
X117691762Y-99190151D01*
X117657543Y-99174195D01*
X117604258Y-99127278D01*
X117584797Y-99059001D01*
X117605339Y-98991041D01*
X117657543Y-98945805D01*
X117691762Y-98929849D01*
X117691767Y-98929846D01*
X117696749Y-98927523D01*
X117819558Y-98841531D01*
X117879789Y-98799357D01*
X117879792Y-98799355D01*
X117884300Y-98796198D01*
X118046198Y-98634300D01*
X118177523Y-98446749D01*
X118179846Y-98441767D01*
X118179849Y-98441762D01*
X118271961Y-98244225D01*
X118271961Y-98244224D01*
X118274284Y-98239243D01*
X118333543Y-98018087D01*
X118353498Y-97790000D01*
X118333543Y-97561913D01*
X118315329Y-97493938D01*
X118275707Y-97346067D01*
X118275706Y-97346065D01*
X118274284Y-97340757D01*
X118268661Y-97328699D01*
X118179849Y-97138238D01*
X118179846Y-97138233D01*
X118177523Y-97133251D01*
X118046198Y-96945700D01*
X117884300Y-96783802D01*
X117879792Y-96780645D01*
X117879789Y-96780643D01*
X117776031Y-96707991D01*
X117696749Y-96652477D01*
X117691767Y-96650154D01*
X117691762Y-96650151D01*
X117494225Y-96558039D01*
X117494224Y-96558039D01*
X117489243Y-96555716D01*
X117483935Y-96554294D01*
X117483933Y-96554293D01*
X117273402Y-96497881D01*
X117273400Y-96497881D01*
X117268087Y-96496457D01*
X117168520Y-96487746D01*
X117099851Y-96481738D01*
X117099844Y-96481738D01*
X117097127Y-96481500D01*
X116582873Y-96481500D01*
X116580156Y-96481738D01*
X116580149Y-96481738D01*
X116511480Y-96487746D01*
X116411913Y-96496457D01*
X116406600Y-96497881D01*
X116406598Y-96497881D01*
X116196067Y-96554293D01*
X116196065Y-96554294D01*
X116190757Y-96555716D01*
X116185776Y-96558039D01*
X116185775Y-96558039D01*
X115988238Y-96650151D01*
X115988233Y-96650154D01*
X115983251Y-96652477D01*
X115903969Y-96707991D01*
X115800211Y-96780643D01*
X115800208Y-96780645D01*
X115795700Y-96783802D01*
X115633802Y-96945700D01*
X115502477Y-97133251D01*
X115500154Y-97138233D01*
X115500151Y-97138238D01*
X115411339Y-97328699D01*
X115405716Y-97340757D01*
X115404294Y-97346065D01*
X115404293Y-97346067D01*
X115364671Y-97493938D01*
X115346457Y-97561913D01*
X115326502Y-97790000D01*
X115346457Y-98018087D01*
X115405716Y-98239243D01*
X115408039Y-98244224D01*
X115408039Y-98244225D01*
X115500151Y-98441762D01*
X115500154Y-98441767D01*
X115502477Y-98446749D01*
X115633802Y-98634300D01*
X115795700Y-98796198D01*
X115800208Y-98799355D01*
X115800211Y-98799357D01*
X115860442Y-98841531D01*
X115983251Y-98927523D01*
X115988233Y-98929846D01*
X115988238Y-98929849D01*
X116022457Y-98945805D01*
X116075742Y-98992722D01*
X116095203Y-99060999D01*
X116074661Y-99128959D01*
X116022457Y-99174195D01*
X115988238Y-99190151D01*
X115988233Y-99190154D01*
X115983251Y-99192477D01*
X115922195Y-99235229D01*
X115800211Y-99320643D01*
X115800208Y-99320645D01*
X115795700Y-99323802D01*
X115633802Y-99485700D01*
X115502477Y-99673251D01*
X115500154Y-99678233D01*
X115500151Y-99678238D01*
X115408039Y-99875775D01*
X115405716Y-99880757D01*
X115346457Y-100101913D01*
X115326502Y-100330000D01*
X115346457Y-100558087D01*
X115405716Y-100779243D01*
X115408039Y-100784224D01*
X115408039Y-100784225D01*
X115500151Y-100981762D01*
X115500154Y-100981767D01*
X115502477Y-100986749D01*
X115633802Y-101174300D01*
X115795700Y-101336198D01*
X115800208Y-101339355D01*
X115800211Y-101339357D01*
X115878389Y-101394098D01*
X115983251Y-101467523D01*
X115988233Y-101469846D01*
X115988238Y-101469849D01*
X116022457Y-101485805D01*
X116075742Y-101532722D01*
X116095203Y-101600999D01*
X116074661Y-101668959D01*
X116022457Y-101714195D01*
X115988238Y-101730151D01*
X115988233Y-101730154D01*
X115983251Y-101732477D01*
X115933930Y-101767012D01*
X115800211Y-101860643D01*
X115800208Y-101860645D01*
X115795700Y-101863802D01*
X115633802Y-102025700D01*
X115502477Y-102213251D01*
X115500154Y-102218233D01*
X115500151Y-102218238D01*
X115422914Y-102383876D01*
X115405716Y-102420757D01*
X115346457Y-102641913D01*
X115326502Y-102870000D01*
X115346457Y-103098087D01*
X115347881Y-103103400D01*
X115347881Y-103103402D01*
X115399408Y-103295700D01*
X115405716Y-103319243D01*
X115408039Y-103324224D01*
X115408039Y-103324225D01*
X115500151Y-103521762D01*
X115500154Y-103521767D01*
X115502477Y-103526749D01*
X115552719Y-103598502D01*
X115613829Y-103685775D01*
X115633802Y-103714300D01*
X115795700Y-103876198D01*
X115800208Y-103879355D01*
X115800211Y-103879357D01*
X115846706Y-103911913D01*
X115983251Y-104007523D01*
X115988233Y-104009846D01*
X115988238Y-104009849D01*
X116022457Y-104025805D01*
X116075742Y-104072722D01*
X116095203Y-104140999D01*
X116074661Y-104208959D01*
X116022457Y-104254195D01*
X115988238Y-104270151D01*
X115988233Y-104270154D01*
X115983251Y-104272477D01*
X115878389Y-104345902D01*
X115800211Y-104400643D01*
X115800208Y-104400645D01*
X115795700Y-104403802D01*
X115633802Y-104565700D01*
X115630645Y-104570208D01*
X115630643Y-104570211D01*
X115575902Y-104648389D01*
X115502477Y-104753251D01*
X115500154Y-104758233D01*
X115500151Y-104758238D01*
X115408039Y-104955775D01*
X115405716Y-104960757D01*
X115404294Y-104966065D01*
X115404293Y-104966067D01*
X115348517Y-105174225D01*
X115346457Y-105181913D01*
X115326502Y-105410000D01*
X115346457Y-105638087D01*
X115405716Y-105859243D01*
X115408039Y-105864224D01*
X115408039Y-105864225D01*
X115500151Y-106061762D01*
X115500154Y-106061767D01*
X115502477Y-106066749D01*
X115633802Y-106254300D01*
X115795700Y-106416198D01*
X115800208Y-106419355D01*
X115800211Y-106419357D01*
X115839034Y-106446541D01*
X115983251Y-106547523D01*
X115988233Y-106549846D01*
X115988238Y-106549849D01*
X116022457Y-106565805D01*
X116075742Y-106612722D01*
X116095203Y-106680999D01*
X116074661Y-106748959D01*
X116022457Y-106794195D01*
X115988238Y-106810151D01*
X115988233Y-106810154D01*
X115983251Y-106812477D01*
X115911867Y-106862461D01*
X115800211Y-106940643D01*
X115800208Y-106940645D01*
X115795700Y-106943802D01*
X115633802Y-107105700D01*
X115630645Y-107110208D01*
X115630643Y-107110211D01*
X115621954Y-107122620D01*
X115502477Y-107293251D01*
X115500154Y-107298233D01*
X115500151Y-107298238D01*
X115419974Y-107470180D01*
X115405716Y-107500757D01*
X115404294Y-107506065D01*
X115404293Y-107506067D01*
X115363476Y-107658398D01*
X115346457Y-107721913D01*
X115326502Y-107950000D01*
X115346457Y-108178087D01*
X115347881Y-108183400D01*
X115347881Y-108183402D01*
X115403941Y-108392617D01*
X115405716Y-108399243D01*
X115408039Y-108404224D01*
X115408039Y-108404225D01*
X115500151Y-108601762D01*
X115500154Y-108601767D01*
X115502477Y-108606749D01*
X115505634Y-108611257D01*
X115624281Y-108780702D01*
X115633802Y-108794300D01*
X115795700Y-108956198D01*
X115800208Y-108959355D01*
X115800211Y-108959357D01*
X115847319Y-108992342D01*
X115983251Y-109087523D01*
X115988233Y-109089846D01*
X115988238Y-109089849D01*
X116022457Y-109105805D01*
X116075742Y-109152722D01*
X116095203Y-109220999D01*
X116074661Y-109288959D01*
X116022457Y-109334195D01*
X115988238Y-109350151D01*
X115988233Y-109350154D01*
X115983251Y-109352477D01*
X115908888Y-109404547D01*
X115800211Y-109480643D01*
X115800208Y-109480645D01*
X115795700Y-109483802D01*
X115633802Y-109645700D01*
X115630645Y-109650208D01*
X115630643Y-109650211D01*
X115583977Y-109716857D01*
X115502477Y-109833251D01*
X115500154Y-109838233D01*
X115500151Y-109838238D01*
X115411203Y-110028990D01*
X115405716Y-110040757D01*
X115404294Y-110046065D01*
X115404293Y-110046067D01*
X115360976Y-110207727D01*
X115346457Y-110261913D01*
X115326502Y-110490000D01*
X110805951Y-110490000D01*
X110933933Y-110455707D01*
X110933935Y-110455706D01*
X110939243Y-110454284D01*
X111021104Y-110416112D01*
X111141762Y-110359849D01*
X111141767Y-110359846D01*
X111146749Y-110357523D01*
X111284351Y-110261173D01*
X111329789Y-110229357D01*
X111329792Y-110229355D01*
X111334300Y-110226198D01*
X111496198Y-110064300D01*
X111503833Y-110053397D01*
X111624366Y-109881257D01*
X111627523Y-109876749D01*
X111629846Y-109871767D01*
X111629849Y-109871762D01*
X111721961Y-109674225D01*
X111721961Y-109674224D01*
X111724284Y-109669243D01*
X111730593Y-109645700D01*
X111782119Y-109453402D01*
X111782119Y-109453400D01*
X111783543Y-109448087D01*
X111803498Y-109220000D01*
X111783556Y-108992065D01*
X111797545Y-108922461D01*
X111819982Y-108891989D01*
X113050528Y-107661443D01*
X113056793Y-107655589D01*
X113094664Y-107622552D01*
X113094665Y-107622551D01*
X113100385Y-107617561D01*
X113137136Y-107565271D01*
X113141028Y-107560029D01*
X113180476Y-107509718D01*
X113183600Y-107502799D01*
X113184988Y-107500507D01*
X113193357Y-107485835D01*
X113194622Y-107483475D01*
X113198990Y-107477261D01*
X113222203Y-107417723D01*
X113224759Y-107411642D01*
X113239526Y-107378939D01*
X113251045Y-107353427D01*
X113252430Y-107345954D01*
X113253234Y-107343388D01*
X113257855Y-107327165D01*
X113258520Y-107324573D01*
X113261282Y-107317491D01*
X113263875Y-107297798D01*
X113269622Y-107254139D01*
X113270654Y-107247623D01*
X113280911Y-107192281D01*
X113282295Y-107184814D01*
X113278709Y-107122620D01*
X113278500Y-107115367D01*
X113278500Y-95535660D01*
X113298502Y-95467539D01*
X113315405Y-95446565D01*
X114416565Y-94345405D01*
X114478877Y-94311379D01*
X114505660Y-94308500D01*
X125594339Y-94308500D01*
X125662460Y-94328502D01*
X125683435Y-94345405D01*
X126254596Y-94916567D01*
X126288621Y-94978879D01*
X126291500Y-95005662D01*
X126291500Y-95290114D01*
X126271498Y-95358235D01*
X126241153Y-95390874D01*
X126117827Y-95483470D01*
X126094965Y-95500635D01*
X126038537Y-95559684D01*
X126014283Y-95585064D01*
X125952759Y-95620494D01*
X125881846Y-95617037D01*
X125824060Y-95575791D01*
X125805207Y-95542243D01*
X125763767Y-95431703D01*
X125760615Y-95423295D01*
X125673261Y-95306739D01*
X125556705Y-95219385D01*
X125420316Y-95168255D01*
X125358134Y-95161500D01*
X123561866Y-95161500D01*
X123499684Y-95168255D01*
X123363295Y-95219385D01*
X123246739Y-95306739D01*
X123159385Y-95423295D01*
X123108255Y-95559684D01*
X123101500Y-95621866D01*
X123101500Y-97418134D01*
X123108255Y-97480316D01*
X123159385Y-97616705D01*
X123246739Y-97733261D01*
X123363295Y-97820615D01*
X123499684Y-97871745D01*
X123561866Y-97878500D01*
X125358134Y-97878500D01*
X125420316Y-97871745D01*
X125556705Y-97820615D01*
X125673261Y-97733261D01*
X125760615Y-97616705D01*
X125782799Y-97557529D01*
X125804598Y-97499382D01*
X125847240Y-97442618D01*
X125913802Y-97417918D01*
X125983150Y-97433126D01*
X126017817Y-97461114D01*
X126046250Y-97493938D01*
X126218126Y-97636632D01*
X126411000Y-97749338D01*
X126619692Y-97829030D01*
X126624760Y-97830061D01*
X126624763Y-97830062D01*
X126719862Y-97849410D01*
X126838597Y-97873567D01*
X126843772Y-97873757D01*
X126843774Y-97873757D01*
X127056673Y-97881564D01*
X127056677Y-97881564D01*
X127061837Y-97881753D01*
X127066957Y-97881097D01*
X127066959Y-97881097D01*
X127278288Y-97854025D01*
X127278289Y-97854025D01*
X127283416Y-97853368D01*
X127288366Y-97851883D01*
X127492429Y-97790661D01*
X127492434Y-97790659D01*
X127497384Y-97789174D01*
X127697994Y-97690896D01*
X127879860Y-97561173D01*
X128038096Y-97403489D01*
X128168453Y-97222077D01*
X128169640Y-97222930D01*
X128216960Y-97179362D01*
X128286897Y-97167145D01*
X128352338Y-97194678D01*
X128380166Y-97226511D01*
X128437694Y-97320388D01*
X128443777Y-97328699D01*
X128583213Y-97489667D01*
X128590580Y-97496883D01*
X128754434Y-97632916D01*
X128762881Y-97638831D01*
X128946756Y-97746279D01*
X128956042Y-97750729D01*
X129155001Y-97826703D01*
X129164899Y-97829579D01*
X129268250Y-97850606D01*
X129282299Y-97849410D01*
X129286000Y-97839065D01*
X129286000Y-97838517D01*
X129794000Y-97838517D01*
X129798064Y-97852359D01*
X129811478Y-97854393D01*
X129818184Y-97853534D01*
X129828262Y-97851392D01*
X130032255Y-97790191D01*
X130041842Y-97786433D01*
X130233095Y-97692739D01*
X130241945Y-97687464D01*
X130415328Y-97563792D01*
X130423200Y-97557139D01*
X130574052Y-97406812D01*
X130580730Y-97398965D01*
X130705003Y-97226020D01*
X130710313Y-97217183D01*
X130804670Y-97026267D01*
X130808469Y-97016672D01*
X130870377Y-96812910D01*
X130872555Y-96802837D01*
X130873986Y-96791962D01*
X130871775Y-96777778D01*
X130858617Y-96774000D01*
X129812115Y-96774000D01*
X129796876Y-96778475D01*
X129795671Y-96779865D01*
X129794000Y-96787548D01*
X129794000Y-97838517D01*
X129286000Y-97838517D01*
X129286000Y-96247885D01*
X129794000Y-96247885D01*
X129798475Y-96263124D01*
X129799865Y-96264329D01*
X129807548Y-96266000D01*
X130858344Y-96266000D01*
X130871875Y-96262027D01*
X130873180Y-96252947D01*
X130831214Y-96085875D01*
X130827894Y-96076124D01*
X130742972Y-95880814D01*
X130738105Y-95871739D01*
X130622426Y-95692926D01*
X130616136Y-95684757D01*
X130472806Y-95527240D01*
X130465273Y-95520215D01*
X130298139Y-95388222D01*
X130289552Y-95382517D01*
X130103117Y-95279599D01*
X130093705Y-95275369D01*
X129892959Y-95204280D01*
X129882988Y-95201646D01*
X129811837Y-95188972D01*
X129798540Y-95190432D01*
X129794000Y-95204989D01*
X129794000Y-96247885D01*
X129286000Y-96247885D01*
X129286000Y-95203102D01*
X129282082Y-95189758D01*
X129267806Y-95187771D01*
X129229324Y-95193660D01*
X129219288Y-95196051D01*
X129016868Y-95262212D01*
X129007359Y-95266209D01*
X128818463Y-95364542D01*
X128809738Y-95370036D01*
X128639433Y-95497905D01*
X128631726Y-95504748D01*
X128484590Y-95658717D01*
X128478109Y-95666722D01*
X128373498Y-95820074D01*
X128318587Y-95865076D01*
X128248062Y-95873247D01*
X128184315Y-95841993D01*
X128163618Y-95817509D01*
X128082822Y-95692617D01*
X128082820Y-95692614D01*
X128080014Y-95688277D01*
X127929670Y-95523051D01*
X127925619Y-95519852D01*
X127925615Y-95519848D01*
X127756408Y-95386216D01*
X127715345Y-95328298D01*
X127708500Y-95287334D01*
X127708500Y-95066062D01*
X138018493Y-95066062D01*
X138027789Y-95078077D01*
X138078994Y-95113931D01*
X138088489Y-95119414D01*
X138285947Y-95211490D01*
X138296239Y-95215236D01*
X138506688Y-95271625D01*
X138517481Y-95273528D01*
X138734525Y-95292517D01*
X138745475Y-95292517D01*
X138962519Y-95273528D01*
X138973312Y-95271625D01*
X139183761Y-95215236D01*
X139194053Y-95211490D01*
X139391511Y-95119414D01*
X139401006Y-95113931D01*
X139453048Y-95077491D01*
X139461424Y-95067012D01*
X139454356Y-95053566D01*
X138752812Y-94352022D01*
X138738868Y-94344408D01*
X138737035Y-94344539D01*
X138730420Y-94348790D01*
X138024923Y-95054287D01*
X138018493Y-95066062D01*
X127708500Y-95066062D01*
X127708500Y-94688912D01*
X127708792Y-94680342D01*
X127712209Y-94630224D01*
X127712209Y-94630220D01*
X127712725Y-94622648D01*
X127710276Y-94608613D01*
X127701740Y-94559708D01*
X127700777Y-94553182D01*
X127694015Y-94497304D01*
X127693102Y-94489758D01*
X127690416Y-94482650D01*
X127689779Y-94480056D01*
X127685318Y-94463750D01*
X127684548Y-94461199D01*
X127683242Y-94453716D01*
X127657561Y-94395212D01*
X127655069Y-94389105D01*
X127635173Y-94336452D01*
X127635173Y-94336451D01*
X127632487Y-94329344D01*
X127628184Y-94323083D01*
X127626947Y-94320717D01*
X127618720Y-94305937D01*
X127617369Y-94303652D01*
X127614315Y-94296695D01*
X127609695Y-94290675D01*
X127609692Y-94290669D01*
X127582585Y-94255345D01*
X127575413Y-94245998D01*
X127571541Y-94240668D01*
X127539661Y-94194280D01*
X127539656Y-94194275D01*
X127535357Y-94188019D01*
X127523420Y-94177383D01*
X127488830Y-94146565D01*
X127483554Y-94141584D01*
X127327445Y-93985475D01*
X137427483Y-93985475D01*
X137446472Y-94202519D01*
X137448375Y-94213312D01*
X137504764Y-94423761D01*
X137508510Y-94434053D01*
X137600586Y-94631511D01*
X137606069Y-94641006D01*
X137642509Y-94693048D01*
X137652988Y-94701424D01*
X137666434Y-94694356D01*
X138367978Y-93992812D01*
X138374356Y-93981132D01*
X139104408Y-93981132D01*
X139104539Y-93982965D01*
X139108790Y-93989580D01*
X139814287Y-94695077D01*
X139826062Y-94701507D01*
X139838077Y-94692211D01*
X139873931Y-94641006D01*
X139879414Y-94631511D01*
X139971490Y-94434053D01*
X139975236Y-94423761D01*
X140031625Y-94213312D01*
X140033528Y-94202519D01*
X140052517Y-93985475D01*
X140052517Y-93980000D01*
X140926502Y-93980000D01*
X140946457Y-94208087D01*
X140947881Y-94213400D01*
X140947881Y-94213402D01*
X141003005Y-94419124D01*
X141005716Y-94429243D01*
X141008039Y-94434224D01*
X141008039Y-94434225D01*
X141100151Y-94631762D01*
X141100154Y-94631767D01*
X141102477Y-94636749D01*
X141136000Y-94684625D01*
X141226805Y-94814307D01*
X141233802Y-94824300D01*
X141395700Y-94986198D01*
X141400208Y-94989355D01*
X141400211Y-94989357D01*
X141421409Y-95004200D01*
X141583251Y-95117523D01*
X141588233Y-95119846D01*
X141588238Y-95119849D01*
X141784765Y-95211490D01*
X141790757Y-95214284D01*
X141796065Y-95215706D01*
X141796067Y-95215707D01*
X142006598Y-95272119D01*
X142006600Y-95272119D01*
X142011913Y-95273543D01*
X142240000Y-95293498D01*
X142468087Y-95273543D01*
X142473400Y-95272119D01*
X142473402Y-95272119D01*
X142683933Y-95215707D01*
X142683935Y-95215706D01*
X142689243Y-95214284D01*
X142695235Y-95211490D01*
X142891762Y-95119849D01*
X142891767Y-95119846D01*
X142896749Y-95117523D01*
X143058591Y-95004200D01*
X143079789Y-94989357D01*
X143079792Y-94989355D01*
X143084300Y-94986198D01*
X143246198Y-94824300D01*
X143253196Y-94814307D01*
X143344000Y-94684625D01*
X143377523Y-94636749D01*
X143379846Y-94631767D01*
X143379849Y-94631762D01*
X143471961Y-94434225D01*
X143471961Y-94434224D01*
X143474284Y-94429243D01*
X143476996Y-94419124D01*
X143532119Y-94213402D01*
X143532119Y-94213400D01*
X143533543Y-94208087D01*
X143553498Y-93980000D01*
X143542316Y-93852194D01*
X152406135Y-93852194D01*
X152417006Y-93923236D01*
X152419395Y-93933263D01*
X152492709Y-94157570D01*
X152496706Y-94167079D01*
X152605669Y-94376395D01*
X152611163Y-94385120D01*
X152752854Y-94573835D01*
X152759697Y-94581542D01*
X152930310Y-94744584D01*
X152938316Y-94751067D01*
X153133274Y-94884057D01*
X153142226Y-94889143D01*
X153356285Y-94988506D01*
X153365945Y-94992060D01*
X153593369Y-95055130D01*
X153603473Y-95057057D01*
X153796102Y-95077644D01*
X153802794Y-95078000D01*
X154597885Y-95078000D01*
X154613124Y-95073525D01*
X154614329Y-95072135D01*
X154616000Y-95064452D01*
X154616000Y-95059885D01*
X155124000Y-95059885D01*
X155128475Y-95075124D01*
X155129865Y-95076329D01*
X155137548Y-95078000D01*
X155919857Y-95078000D01*
X155925030Y-95077788D01*
X156100350Y-95063374D01*
X156110512Y-95061691D01*
X156339396Y-95004200D01*
X156349151Y-95000879D01*
X156565557Y-94906782D01*
X156574655Y-94901904D01*
X156772787Y-94773727D01*
X156780956Y-94767437D01*
X156955501Y-94608613D01*
X156962526Y-94601080D01*
X157108787Y-94415880D01*
X157114492Y-94407293D01*
X157228536Y-94200703D01*
X157232766Y-94191291D01*
X157311539Y-93968844D01*
X157314173Y-93958873D01*
X157333239Y-93851837D01*
X157331779Y-93838540D01*
X157317222Y-93834000D01*
X155142115Y-93834000D01*
X155126876Y-93838475D01*
X155125671Y-93839865D01*
X155124000Y-93847548D01*
X155124000Y-95059885D01*
X154616000Y-95059885D01*
X154616000Y-93852115D01*
X154611525Y-93836876D01*
X154610135Y-93835671D01*
X154602452Y-93834000D01*
X152421466Y-93834000D01*
X152408122Y-93837918D01*
X152406135Y-93852194D01*
X143542316Y-93852194D01*
X143533543Y-93751913D01*
X143496981Y-93615461D01*
X143475707Y-93536067D01*
X143475706Y-93536065D01*
X143474284Y-93530757D01*
X143379966Y-93328489D01*
X143379849Y-93328238D01*
X143379846Y-93328233D01*
X143377523Y-93323251D01*
X143366958Y-93308163D01*
X152406761Y-93308163D01*
X152408221Y-93321460D01*
X152422778Y-93326000D01*
X154597885Y-93326000D01*
X154613124Y-93321525D01*
X154614329Y-93320135D01*
X154616000Y-93312452D01*
X154616000Y-93307885D01*
X155124000Y-93307885D01*
X155128475Y-93323124D01*
X155129865Y-93324329D01*
X155137548Y-93326000D01*
X157318534Y-93326000D01*
X157331878Y-93322082D01*
X157333865Y-93307806D01*
X157322994Y-93236764D01*
X157320605Y-93226737D01*
X157247291Y-93002430D01*
X157243294Y-92992921D01*
X157134331Y-92783605D01*
X157128837Y-92774880D01*
X156987146Y-92586165D01*
X156980303Y-92578458D01*
X156809690Y-92415416D01*
X156801684Y-92408933D01*
X156606726Y-92275943D01*
X156597774Y-92270857D01*
X156383715Y-92171494D01*
X156374055Y-92167940D01*
X156146631Y-92104870D01*
X156136527Y-92102943D01*
X155943898Y-92082356D01*
X155937206Y-92082000D01*
X155142115Y-92082000D01*
X155126876Y-92086475D01*
X155125671Y-92087865D01*
X155124000Y-92095548D01*
X155124000Y-93307885D01*
X154616000Y-93307885D01*
X154616000Y-92100115D01*
X154611525Y-92084876D01*
X154610135Y-92083671D01*
X154602452Y-92082000D01*
X153820143Y-92082000D01*
X153814970Y-92082212D01*
X153639650Y-92096626D01*
X153629488Y-92098309D01*
X153400604Y-92155800D01*
X153390849Y-92159121D01*
X153174443Y-92253218D01*
X153165345Y-92258096D01*
X152967213Y-92386273D01*
X152959044Y-92392563D01*
X152784499Y-92551387D01*
X152777474Y-92558920D01*
X152631213Y-92744120D01*
X152625508Y-92752707D01*
X152511464Y-92959297D01*
X152507234Y-92968709D01*
X152428461Y-93191156D01*
X152425827Y-93201127D01*
X152406761Y-93308163D01*
X143366958Y-93308163D01*
X143246198Y-93135700D01*
X143084300Y-92973802D01*
X143079792Y-92970645D01*
X143079789Y-92970643D01*
X142978826Y-92899948D01*
X142896749Y-92842477D01*
X142891767Y-92840154D01*
X142891762Y-92840151D01*
X142694225Y-92748039D01*
X142694224Y-92748039D01*
X142689243Y-92745716D01*
X142683935Y-92744294D01*
X142683933Y-92744293D01*
X142473402Y-92687881D01*
X142473400Y-92687881D01*
X142468087Y-92686457D01*
X142240000Y-92666502D01*
X142011913Y-92686457D01*
X142006600Y-92687881D01*
X142006598Y-92687881D01*
X141796067Y-92744293D01*
X141796065Y-92744294D01*
X141790757Y-92745716D01*
X141785776Y-92748039D01*
X141785775Y-92748039D01*
X141588238Y-92840151D01*
X141588233Y-92840154D01*
X141583251Y-92842477D01*
X141501174Y-92899948D01*
X141400211Y-92970643D01*
X141400208Y-92970645D01*
X141395700Y-92973802D01*
X141233802Y-93135700D01*
X141102477Y-93323251D01*
X141100154Y-93328233D01*
X141100151Y-93328238D01*
X141100034Y-93328489D01*
X141005716Y-93530757D01*
X141004294Y-93536065D01*
X141004293Y-93536067D01*
X140983019Y-93615461D01*
X140946457Y-93751913D01*
X140926502Y-93980000D01*
X140052517Y-93980000D01*
X140052517Y-93974525D01*
X140033528Y-93757481D01*
X140031625Y-93746688D01*
X139975236Y-93536239D01*
X139971490Y-93525947D01*
X139879414Y-93328489D01*
X139873931Y-93318994D01*
X139837491Y-93266952D01*
X139827012Y-93258576D01*
X139813566Y-93265644D01*
X139112022Y-93967188D01*
X139104408Y-93981132D01*
X138374356Y-93981132D01*
X138375592Y-93978868D01*
X138375461Y-93977035D01*
X138371210Y-93970420D01*
X137665713Y-93264923D01*
X137653938Y-93258493D01*
X137641923Y-93267789D01*
X137606069Y-93318994D01*
X137600586Y-93328489D01*
X137508510Y-93525947D01*
X137504764Y-93536239D01*
X137448375Y-93746688D01*
X137446472Y-93757481D01*
X137427483Y-93974525D01*
X137427483Y-93985475D01*
X127327445Y-93985475D01*
X126461450Y-93119480D01*
X126455596Y-93113215D01*
X126453802Y-93111159D01*
X126417561Y-93069615D01*
X126365280Y-93032871D01*
X126359986Y-93028939D01*
X126315693Y-92994209D01*
X126309718Y-92989524D01*
X126302802Y-92986401D01*
X126300516Y-92985017D01*
X126285835Y-92976643D01*
X126283475Y-92975378D01*
X126277261Y-92971010D01*
X126270182Y-92968250D01*
X126270180Y-92968249D01*
X126217725Y-92947798D01*
X126211656Y-92945247D01*
X126153427Y-92918955D01*
X126145960Y-92917571D01*
X126143405Y-92916770D01*
X126127152Y-92912141D01*
X126124572Y-92911478D01*
X126117491Y-92908718D01*
X126109960Y-92907727D01*
X126109958Y-92907726D01*
X126080339Y-92903827D01*
X126054139Y-92900378D01*
X126047641Y-92899348D01*
X126013325Y-92892988D01*
X138018576Y-92892988D01*
X138025644Y-92906434D01*
X138727188Y-93607978D01*
X138741132Y-93615592D01*
X138742965Y-93615461D01*
X138749580Y-93611210D01*
X139455077Y-92905713D01*
X139461507Y-92893938D01*
X139452211Y-92881923D01*
X139401006Y-92846069D01*
X139391511Y-92840586D01*
X139194053Y-92748510D01*
X139183761Y-92744764D01*
X138973312Y-92688375D01*
X138962519Y-92686472D01*
X138745475Y-92667483D01*
X138734525Y-92667483D01*
X138517481Y-92686472D01*
X138506688Y-92688375D01*
X138296239Y-92744764D01*
X138285947Y-92748510D01*
X138088489Y-92840586D01*
X138078994Y-92846069D01*
X138026952Y-92882509D01*
X138018576Y-92892988D01*
X126013325Y-92892988D01*
X125984814Y-92887704D01*
X125977234Y-92888141D01*
X125977233Y-92888141D01*
X125922608Y-92891291D01*
X125915354Y-92891500D01*
X114188927Y-92891500D01*
X114180358Y-92891208D01*
X114130225Y-92887790D01*
X114130221Y-92887790D01*
X114122648Y-92887274D01*
X114059681Y-92898264D01*
X114053169Y-92899224D01*
X113989758Y-92906898D01*
X113982657Y-92909581D01*
X113980048Y-92910222D01*
X113963728Y-92914687D01*
X113961195Y-92915452D01*
X113953717Y-92916757D01*
X113895190Y-92942448D01*
X113889108Y-92944930D01*
X113868753Y-92952622D01*
X113836449Y-92964828D01*
X113836447Y-92964829D01*
X113829344Y-92967513D01*
X113823085Y-92971814D01*
X113820720Y-92973051D01*
X113805948Y-92981273D01*
X113803656Y-92982628D01*
X113796695Y-92985684D01*
X113790668Y-92990309D01*
X113790664Y-92990311D01*
X113745987Y-93024593D01*
X113740662Y-93028462D01*
X113688019Y-93064643D01*
X113646554Y-93111183D01*
X113641594Y-93116435D01*
X112089472Y-94668558D01*
X112083206Y-94674412D01*
X112045340Y-94707444D01*
X112045337Y-94707447D01*
X112039615Y-94712439D01*
X112035248Y-94718653D01*
X112002872Y-94764719D01*
X111998939Y-94770014D01*
X111959524Y-94820282D01*
X111956401Y-94827198D01*
X111955017Y-94829484D01*
X111946643Y-94844165D01*
X111945378Y-94846525D01*
X111941010Y-94852739D01*
X111938250Y-94859818D01*
X111938249Y-94859820D01*
X111917798Y-94912275D01*
X111915247Y-94918344D01*
X111888955Y-94976573D01*
X111887571Y-94984040D01*
X111886770Y-94986595D01*
X111882141Y-95002848D01*
X111881478Y-95005428D01*
X111878718Y-95012509D01*
X111877727Y-95020040D01*
X111877726Y-95020042D01*
X111870379Y-95075852D01*
X111869348Y-95082359D01*
X111857704Y-95145186D01*
X111858141Y-95152766D01*
X111858141Y-95152767D01*
X111861291Y-95207392D01*
X111861500Y-95214646D01*
X111861500Y-103419231D01*
X111841498Y-103487352D01*
X111787842Y-103533845D01*
X111717568Y-103543949D01*
X111652988Y-103514455D01*
X111627914Y-103484089D01*
X111627523Y-103483251D01*
X111624367Y-103478744D01*
X111624366Y-103478742D01*
X111499357Y-103300211D01*
X111499355Y-103300208D01*
X111496198Y-103295700D01*
X111334300Y-103133802D01*
X111329792Y-103130645D01*
X111329789Y-103130643D01*
X111252229Y-103076335D01*
X111207901Y-103020878D01*
X111198500Y-102973122D01*
X111198500Y-94875660D01*
X111218502Y-94807539D01*
X111235405Y-94786565D01*
X114016566Y-92005405D01*
X114078878Y-91971379D01*
X114105661Y-91968500D01*
X126201088Y-91968500D01*
X126209658Y-91968792D01*
X126259776Y-91972209D01*
X126259780Y-91972209D01*
X126267352Y-91972725D01*
X126274829Y-91971420D01*
X126274830Y-91971420D01*
X126301308Y-91966799D01*
X126330303Y-91961738D01*
X126336821Y-91960777D01*
X126400242Y-91953102D01*
X126407343Y-91950419D01*
X126409952Y-91949778D01*
X126426262Y-91945315D01*
X126428798Y-91944550D01*
X126436284Y-91943243D01*
X126494800Y-91917556D01*
X126500904Y-91915065D01*
X126553548Y-91895173D01*
X126553549Y-91895172D01*
X126560656Y-91892487D01*
X126566919Y-91888183D01*
X126569285Y-91886946D01*
X126584097Y-91878701D01*
X126586351Y-91877368D01*
X126593305Y-91874315D01*
X126644002Y-91835413D01*
X126649332Y-91831541D01*
X126695720Y-91799661D01*
X126695725Y-91799656D01*
X126701981Y-91795357D01*
X126743427Y-91748839D01*
X126748408Y-91743562D01*
X127480536Y-91011435D01*
X127486801Y-91005582D01*
X127524664Y-90972552D01*
X127524665Y-90972551D01*
X127530385Y-90967561D01*
X127567136Y-90915271D01*
X127571028Y-90910029D01*
X127610476Y-90859718D01*
X127613600Y-90852799D01*
X127614988Y-90850507D01*
X127623357Y-90835835D01*
X127624622Y-90833475D01*
X127628990Y-90827261D01*
X127652203Y-90767723D01*
X127654759Y-90761642D01*
X127677918Y-90710352D01*
X127681045Y-90703427D01*
X127682430Y-90695954D01*
X127683234Y-90693388D01*
X127687855Y-90677165D01*
X127688520Y-90674573D01*
X127691282Y-90667491D01*
X127699622Y-90604139D01*
X127700654Y-90597623D01*
X127709202Y-90551500D01*
X127712295Y-90534814D01*
X127708709Y-90472620D01*
X127708500Y-90465367D01*
X127708500Y-90128297D01*
X127728502Y-90060176D01*
X127761332Y-90025718D01*
X127875656Y-89944172D01*
X127875659Y-89944170D01*
X127879860Y-89941173D01*
X128038096Y-89783489D01*
X128168453Y-89602077D01*
X128169640Y-89602930D01*
X128216960Y-89559362D01*
X128286897Y-89547145D01*
X128352338Y-89574678D01*
X128380166Y-89606511D01*
X128437694Y-89700388D01*
X128443777Y-89708699D01*
X128583213Y-89869667D01*
X128590580Y-89876883D01*
X128754434Y-90012916D01*
X128762881Y-90018831D01*
X128946756Y-90126279D01*
X128956042Y-90130729D01*
X129155001Y-90206703D01*
X129164899Y-90209579D01*
X129268250Y-90230606D01*
X129282299Y-90229410D01*
X129286000Y-90219065D01*
X129286000Y-90218517D01*
X129794000Y-90218517D01*
X129798064Y-90232359D01*
X129811478Y-90234393D01*
X129818184Y-90233534D01*
X129828262Y-90231392D01*
X130032255Y-90170191D01*
X130041842Y-90166433D01*
X130233095Y-90072739D01*
X130241945Y-90067464D01*
X130415328Y-89943792D01*
X130423200Y-89937139D01*
X130574052Y-89786812D01*
X130580730Y-89778965D01*
X130696298Y-89618134D01*
X152381500Y-89618134D01*
X152388255Y-89680316D01*
X152439385Y-89816705D01*
X152526739Y-89933261D01*
X152643295Y-90020615D01*
X152779684Y-90071745D01*
X152841866Y-90078500D01*
X156898134Y-90078500D01*
X156960316Y-90071745D01*
X157096705Y-90020615D01*
X157213261Y-89933261D01*
X157300615Y-89816705D01*
X157351745Y-89680316D01*
X157358500Y-89618134D01*
X157358500Y-87541866D01*
X157351745Y-87479684D01*
X157300615Y-87343295D01*
X157213261Y-87226739D01*
X157096705Y-87139385D01*
X156960316Y-87088255D01*
X156898134Y-87081500D01*
X152841866Y-87081500D01*
X152779684Y-87088255D01*
X152643295Y-87139385D01*
X152526739Y-87226739D01*
X152439385Y-87343295D01*
X152388255Y-87479684D01*
X152381500Y-87541866D01*
X152381500Y-89618134D01*
X130696298Y-89618134D01*
X130705003Y-89606020D01*
X130710313Y-89597183D01*
X130804670Y-89406267D01*
X130808469Y-89396672D01*
X130870377Y-89192910D01*
X130872555Y-89182837D01*
X130873986Y-89171962D01*
X130871775Y-89157778D01*
X130858617Y-89154000D01*
X129812115Y-89154000D01*
X129796876Y-89158475D01*
X129795671Y-89159865D01*
X129794000Y-89167548D01*
X129794000Y-90218517D01*
X129286000Y-90218517D01*
X129286000Y-88627885D01*
X129794000Y-88627885D01*
X129798475Y-88643124D01*
X129799865Y-88644329D01*
X129807548Y-88646000D01*
X130858344Y-88646000D01*
X130871875Y-88642027D01*
X130873180Y-88632947D01*
X130831214Y-88465875D01*
X130827894Y-88456124D01*
X130742972Y-88260814D01*
X130738105Y-88251739D01*
X130622426Y-88072926D01*
X130616136Y-88064757D01*
X130472806Y-87907240D01*
X130465273Y-87900215D01*
X130298139Y-87768222D01*
X130289552Y-87762517D01*
X130103117Y-87659599D01*
X130093705Y-87655369D01*
X129892959Y-87584280D01*
X129882988Y-87581646D01*
X129811837Y-87568972D01*
X129798540Y-87570432D01*
X129794000Y-87584989D01*
X129794000Y-88627885D01*
X129286000Y-88627885D01*
X129286000Y-87583102D01*
X129282082Y-87569758D01*
X129267806Y-87567771D01*
X129229324Y-87573660D01*
X129219288Y-87576051D01*
X129016868Y-87642212D01*
X129007359Y-87646209D01*
X128818463Y-87744542D01*
X128809738Y-87750036D01*
X128639433Y-87877905D01*
X128631726Y-87884748D01*
X128484590Y-88038717D01*
X128478109Y-88046722D01*
X128373498Y-88200074D01*
X128318587Y-88245076D01*
X128248062Y-88253247D01*
X128184315Y-88221993D01*
X128163618Y-88197509D01*
X128082822Y-88072617D01*
X128082820Y-88072614D01*
X128080014Y-88068277D01*
X127929670Y-87903051D01*
X127925619Y-87899852D01*
X127925615Y-87899848D01*
X127758414Y-87767800D01*
X127758410Y-87767798D01*
X127754359Y-87764598D01*
X127746215Y-87760102D01*
X127702136Y-87735769D01*
X127558789Y-87656638D01*
X127553920Y-87654914D01*
X127553916Y-87654912D01*
X127353087Y-87583795D01*
X127353083Y-87583794D01*
X127348212Y-87582069D01*
X127343119Y-87581162D01*
X127343116Y-87581161D01*
X127133373Y-87543800D01*
X127133367Y-87543799D01*
X127128284Y-87542894D01*
X127054452Y-87541992D01*
X126910081Y-87540228D01*
X126910079Y-87540228D01*
X126904911Y-87540165D01*
X126684091Y-87573955D01*
X126471756Y-87643357D01*
X126273607Y-87746507D01*
X126269474Y-87749610D01*
X126269471Y-87749612D01*
X126099100Y-87877530D01*
X126094965Y-87880635D01*
X126038537Y-87939684D01*
X126014283Y-87965064D01*
X125952759Y-88000494D01*
X125881846Y-87997037D01*
X125824060Y-87955791D01*
X125805207Y-87922243D01*
X125763767Y-87811703D01*
X125760615Y-87803295D01*
X125673261Y-87686739D01*
X125556705Y-87599385D01*
X125420316Y-87548255D01*
X125358134Y-87541500D01*
X123561866Y-87541500D01*
X123499684Y-87548255D01*
X123363295Y-87599385D01*
X123246739Y-87686739D01*
X123159385Y-87803295D01*
X123108255Y-87939684D01*
X123101500Y-88001866D01*
X123101500Y-89798134D01*
X123108255Y-89860316D01*
X123159385Y-89996705D01*
X123246739Y-90113261D01*
X123363295Y-90200615D01*
X123499684Y-90251745D01*
X123561866Y-90258500D01*
X125358134Y-90258500D01*
X125420316Y-90251745D01*
X125556705Y-90200615D01*
X125673261Y-90113261D01*
X125760615Y-89996705D01*
X125782799Y-89937529D01*
X125804598Y-89879382D01*
X125847240Y-89822618D01*
X125913802Y-89797918D01*
X125983150Y-89813126D01*
X126017817Y-89841114D01*
X126046250Y-89873938D01*
X126218126Y-90016632D01*
X126229070Y-90023027D01*
X126277793Y-90074664D01*
X126291500Y-90131815D01*
X126291500Y-90144340D01*
X126271498Y-90212461D01*
X126254595Y-90233435D01*
X125973435Y-90514595D01*
X125911123Y-90548621D01*
X125884340Y-90551500D01*
X113788912Y-90551500D01*
X113780342Y-90551208D01*
X113730224Y-90547791D01*
X113730220Y-90547791D01*
X113722648Y-90547275D01*
X113715171Y-90548580D01*
X113715170Y-90548580D01*
X113700113Y-90551208D01*
X113659703Y-90558261D01*
X113653186Y-90559222D01*
X113589758Y-90566898D01*
X113582650Y-90569584D01*
X113580056Y-90570221D01*
X113563750Y-90574682D01*
X113561199Y-90575452D01*
X113553716Y-90576758D01*
X113546764Y-90579810D01*
X113546763Y-90579810D01*
X113495212Y-90602439D01*
X113489105Y-90604931D01*
X113436452Y-90624827D01*
X113429344Y-90627513D01*
X113423083Y-90631816D01*
X113420717Y-90633053D01*
X113405937Y-90641280D01*
X113403652Y-90642631D01*
X113396695Y-90645685D01*
X113390675Y-90650305D01*
X113390669Y-90650308D01*
X113368277Y-90667491D01*
X113345998Y-90684587D01*
X113340668Y-90688459D01*
X113294280Y-90720339D01*
X113294275Y-90720344D01*
X113288019Y-90724643D01*
X113282968Y-90730313D01*
X113282966Y-90730314D01*
X113246565Y-90771170D01*
X113241584Y-90776446D01*
X110009480Y-94008550D01*
X110003215Y-94014404D01*
X109959615Y-94052439D01*
X109955248Y-94058653D01*
X109922872Y-94104719D01*
X109918939Y-94110014D01*
X109879524Y-94160282D01*
X109876401Y-94167198D01*
X109875017Y-94169484D01*
X109866643Y-94184165D01*
X109865378Y-94186525D01*
X109861010Y-94192739D01*
X109858250Y-94199818D01*
X109858249Y-94199820D01*
X109837798Y-94252275D01*
X109835247Y-94258344D01*
X109808955Y-94316573D01*
X109807571Y-94324040D01*
X109806770Y-94326595D01*
X109802141Y-94342848D01*
X109801478Y-94345428D01*
X109798718Y-94352509D01*
X109797727Y-94360040D01*
X109797726Y-94360042D01*
X109790379Y-94415852D01*
X109789348Y-94422359D01*
X109777704Y-94485186D01*
X109778141Y-94492766D01*
X109778141Y-94492767D01*
X109781291Y-94547392D01*
X109781500Y-94554646D01*
X109781500Y-102973122D01*
X109761498Y-103041243D01*
X109727771Y-103076335D01*
X109650211Y-103130643D01*
X109650208Y-103130645D01*
X109645700Y-103133802D01*
X109483802Y-103295700D01*
X109480645Y-103300208D01*
X109480643Y-103300211D01*
X109426335Y-103377771D01*
X109352477Y-103483251D01*
X109350154Y-103488233D01*
X109350151Y-103488238D01*
X109324173Y-103543949D01*
X109255716Y-103690757D01*
X109254294Y-103696065D01*
X109254293Y-103696067D01*
X109248363Y-103718197D01*
X109196457Y-103911913D01*
X109176502Y-104140000D01*
X109196457Y-104368087D01*
X109197881Y-104373400D01*
X109197881Y-104373402D01*
X109249408Y-104565700D01*
X109255716Y-104589243D01*
X109258039Y-104594224D01*
X109258039Y-104594225D01*
X109350151Y-104791762D01*
X109350154Y-104791767D01*
X109352477Y-104796749D01*
X109402719Y-104868502D01*
X109476168Y-104973397D01*
X109483802Y-104984300D01*
X109645700Y-105146198D01*
X109650208Y-105149355D01*
X109650211Y-105149357D01*
X109728389Y-105204098D01*
X109833251Y-105277523D01*
X109838233Y-105279846D01*
X109838238Y-105279849D01*
X109978630Y-105345314D01*
X110040757Y-105374284D01*
X110046065Y-105375706D01*
X110046067Y-105375707D01*
X110256598Y-105432119D01*
X110256600Y-105432119D01*
X110261913Y-105433543D01*
X110490000Y-105453498D01*
X110718087Y-105433543D01*
X110723400Y-105432119D01*
X110723402Y-105432119D01*
X110933933Y-105375707D01*
X110933935Y-105375706D01*
X110939243Y-105374284D01*
X111001370Y-105345314D01*
X111141762Y-105279849D01*
X111141767Y-105279846D01*
X111146749Y-105277523D01*
X111251611Y-105204098D01*
X111329789Y-105149357D01*
X111329792Y-105149355D01*
X111334300Y-105146198D01*
X111496198Y-104984300D01*
X111503833Y-104973397D01*
X111624366Y-104801258D01*
X111624367Y-104801256D01*
X111627523Y-104796749D01*
X111627583Y-104796621D01*
X111677766Y-104748774D01*
X111747480Y-104735340D01*
X111813391Y-104761728D01*
X111854571Y-104819561D01*
X111861500Y-104860769D01*
X111861500Y-106794340D01*
X111841498Y-106862461D01*
X111824595Y-106883435D01*
X110818012Y-107890018D01*
X110755700Y-107924044D01*
X110717937Y-107926444D01*
X110490000Y-107906502D01*
X110261913Y-107926457D01*
X110256600Y-107927881D01*
X110256598Y-107927881D01*
X110046067Y-107984293D01*
X110046065Y-107984294D01*
X110040757Y-107985716D01*
X110035776Y-107988039D01*
X110035775Y-107988039D01*
X109838238Y-108080151D01*
X109838233Y-108080154D01*
X109833251Y-108082477D01*
X109734161Y-108151861D01*
X109650211Y-108210643D01*
X109650208Y-108210645D01*
X109645700Y-108213802D01*
X109483802Y-108375700D01*
X109480645Y-108380208D01*
X109480643Y-108380211D01*
X109425902Y-108458389D01*
X109352477Y-108563251D01*
X109350154Y-108568233D01*
X109350151Y-108568238D01*
X109308062Y-108658500D01*
X109255716Y-108770757D01*
X109254294Y-108776065D01*
X109254293Y-108776067D01*
X109202407Y-108969707D01*
X109196457Y-108991913D01*
X109176502Y-109220000D01*
X99103498Y-109220000D01*
X99083543Y-108991913D01*
X99077593Y-108969707D01*
X99025707Y-108776067D01*
X99025706Y-108776065D01*
X99024284Y-108770757D01*
X98971938Y-108658500D01*
X98929849Y-108568238D01*
X98929846Y-108568233D01*
X98927523Y-108563251D01*
X98854098Y-108458389D01*
X98799357Y-108380211D01*
X98799355Y-108380208D01*
X98796198Y-108375700D01*
X98634300Y-108213802D01*
X98629792Y-108210645D01*
X98629789Y-108210643D01*
X98545839Y-108151861D01*
X98446749Y-108082477D01*
X98441767Y-108080154D01*
X98441762Y-108080151D01*
X98244225Y-107988039D01*
X98244224Y-107988039D01*
X98239243Y-107985716D01*
X98233935Y-107984294D01*
X98233933Y-107984293D01*
X98023402Y-107927881D01*
X98023400Y-107927881D01*
X98018087Y-107926457D01*
X97790000Y-107906502D01*
X97562064Y-107926444D01*
X97492460Y-107912455D01*
X97461988Y-107890018D01*
X97041450Y-107469480D01*
X97035596Y-107463215D01*
X97035119Y-107462668D01*
X96997561Y-107419615D01*
X96945280Y-107382871D01*
X96939986Y-107378939D01*
X96895693Y-107344209D01*
X96889718Y-107339524D01*
X96882802Y-107336401D01*
X96880516Y-107335017D01*
X96865835Y-107326643D01*
X96863475Y-107325378D01*
X96857261Y-107321010D01*
X96850182Y-107318250D01*
X96850180Y-107318249D01*
X96797725Y-107297798D01*
X96791656Y-107295247D01*
X96733427Y-107268955D01*
X96725960Y-107267571D01*
X96723405Y-107266770D01*
X96707152Y-107262141D01*
X96704572Y-107261478D01*
X96697491Y-107258718D01*
X96689960Y-107257727D01*
X96689958Y-107257726D01*
X96660339Y-107253827D01*
X96634139Y-107250378D01*
X96627641Y-107249348D01*
X96564814Y-107237704D01*
X96557234Y-107238141D01*
X96557233Y-107238141D01*
X96502608Y-107241291D01*
X96495354Y-107241500D01*
X95346878Y-107241500D01*
X95278757Y-107221498D01*
X95243665Y-107187771D01*
X95189357Y-107110211D01*
X95189355Y-107110208D01*
X95186198Y-107105700D01*
X95024300Y-106943802D01*
X95019792Y-106940645D01*
X95019789Y-106940643D01*
X94908133Y-106862461D01*
X94836749Y-106812477D01*
X94831767Y-106810154D01*
X94831762Y-106810151D01*
X94797543Y-106794195D01*
X94744258Y-106747278D01*
X94724797Y-106679001D01*
X94745339Y-106611041D01*
X94797543Y-106565805D01*
X94831762Y-106549849D01*
X94831767Y-106549846D01*
X94836749Y-106547523D01*
X94980966Y-106446541D01*
X95019789Y-106419357D01*
X95019792Y-106419355D01*
X95024300Y-106416198D01*
X95186198Y-106254300D01*
X95317523Y-106066749D01*
X95319846Y-106061767D01*
X95319849Y-106061762D01*
X95411961Y-105864225D01*
X95411961Y-105864224D01*
X95414284Y-105859243D01*
X95473543Y-105638087D01*
X95493498Y-105410000D01*
X95473543Y-105181913D01*
X95471483Y-105174225D01*
X95436690Y-105044375D01*
X95438380Y-104973399D01*
X95469302Y-104922669D01*
X95506566Y-104885405D01*
X95568878Y-104851379D01*
X95595661Y-104848500D01*
X96623122Y-104848500D01*
X96691243Y-104868502D01*
X96726335Y-104902229D01*
X96776169Y-104973399D01*
X96783802Y-104984300D01*
X96945700Y-105146198D01*
X96950208Y-105149355D01*
X96950211Y-105149357D01*
X97028389Y-105204098D01*
X97133251Y-105277523D01*
X97138233Y-105279846D01*
X97138238Y-105279849D01*
X97278630Y-105345314D01*
X97340757Y-105374284D01*
X97346065Y-105375706D01*
X97346067Y-105375707D01*
X97556598Y-105432119D01*
X97556600Y-105432119D01*
X97561913Y-105433543D01*
X97790000Y-105453498D01*
X98018087Y-105433543D01*
X98023400Y-105432119D01*
X98023402Y-105432119D01*
X98233933Y-105375707D01*
X98233935Y-105375706D01*
X98239243Y-105374284D01*
X98301370Y-105345314D01*
X98441762Y-105279849D01*
X98441767Y-105279846D01*
X98446749Y-105277523D01*
X98551611Y-105204098D01*
X98629789Y-105149357D01*
X98629792Y-105149355D01*
X98634300Y-105146198D01*
X98796198Y-104984300D01*
X98803833Y-104973397D01*
X98877281Y-104868502D01*
X98927523Y-104796749D01*
X98929846Y-104791767D01*
X98929849Y-104791762D01*
X99021961Y-104594225D01*
X99021961Y-104594224D01*
X99024284Y-104589243D01*
X99030593Y-104565700D01*
X99082119Y-104373402D01*
X99082119Y-104373400D01*
X99083543Y-104368087D01*
X99103498Y-104140000D01*
X99083543Y-103911913D01*
X99031637Y-103718197D01*
X99025707Y-103696067D01*
X99025706Y-103696065D01*
X99024284Y-103690757D01*
X98955827Y-103543949D01*
X98929849Y-103488238D01*
X98929846Y-103488233D01*
X98927523Y-103483251D01*
X98853665Y-103377771D01*
X98799357Y-103300211D01*
X98799355Y-103300208D01*
X98796198Y-103295700D01*
X98634300Y-103133802D01*
X98629792Y-103130645D01*
X98629789Y-103130643D01*
X98545839Y-103071861D01*
X98446749Y-103002477D01*
X98441767Y-103000154D01*
X98441762Y-103000151D01*
X98244225Y-102908039D01*
X98244224Y-102908039D01*
X98239243Y-102905716D01*
X98233935Y-102904294D01*
X98233933Y-102904293D01*
X98023402Y-102847881D01*
X98023400Y-102847881D01*
X98018087Y-102846457D01*
X97790000Y-102826502D01*
X97561913Y-102846457D01*
X97556600Y-102847881D01*
X97556598Y-102847881D01*
X97346067Y-102904293D01*
X97346065Y-102904294D01*
X97340757Y-102905716D01*
X97335776Y-102908039D01*
X97335775Y-102908039D01*
X97138238Y-103000151D01*
X97138233Y-103000154D01*
X97133251Y-103002477D01*
X97034161Y-103071861D01*
X96950211Y-103130643D01*
X96950208Y-103130645D01*
X96945700Y-103133802D01*
X96783802Y-103295700D01*
X96780645Y-103300208D01*
X96780643Y-103300211D01*
X96726335Y-103377771D01*
X96670878Y-103422099D01*
X96623122Y-103431500D01*
X95548412Y-103431500D01*
X95480291Y-103411498D01*
X95433798Y-103357842D01*
X95423694Y-103287568D01*
X95426705Y-103272889D01*
X95472119Y-103103402D01*
X95472119Y-103103400D01*
X95473543Y-103098087D01*
X95493498Y-102870000D01*
X95473543Y-102641913D01*
X95414284Y-102420757D01*
X95397086Y-102383876D01*
X95319849Y-102218238D01*
X95319846Y-102218233D01*
X95317523Y-102213251D01*
X95186198Y-102025700D01*
X95024300Y-101863802D01*
X95019792Y-101860645D01*
X95019789Y-101860643D01*
X94886070Y-101767012D01*
X94836749Y-101732477D01*
X94831767Y-101730154D01*
X94831762Y-101730151D01*
X94797543Y-101714195D01*
X94744258Y-101667278D01*
X94724797Y-101599001D01*
X94745339Y-101531041D01*
X94797543Y-101485805D01*
X94831762Y-101469849D01*
X94831767Y-101469846D01*
X94836749Y-101467523D01*
X94941611Y-101394098D01*
X95019789Y-101339357D01*
X95019792Y-101339355D01*
X95024300Y-101336198D01*
X95186198Y-101174300D01*
X95317523Y-100986749D01*
X95319846Y-100981767D01*
X95319849Y-100981762D01*
X95411961Y-100784225D01*
X95411961Y-100784224D01*
X95414284Y-100779243D01*
X95473543Y-100558087D01*
X95493498Y-100330000D01*
X95473543Y-100101913D01*
X95414284Y-99880757D01*
X95411961Y-99875775D01*
X95319849Y-99678238D01*
X95319846Y-99678233D01*
X95317523Y-99673251D01*
X95186198Y-99485700D01*
X95157365Y-99456867D01*
X95123339Y-99394555D01*
X95128404Y-99323740D01*
X95170951Y-99266904D01*
X95202232Y-99249790D01*
X95218293Y-99243769D01*
X95218296Y-99243767D01*
X95226705Y-99240615D01*
X95343261Y-99153261D01*
X95430615Y-99036705D01*
X95481745Y-98900316D01*
X95488500Y-98838134D01*
X95488500Y-96741866D01*
X95481745Y-96679684D01*
X95430615Y-96543295D01*
X95343261Y-96426739D01*
X95226705Y-96339385D01*
X95090316Y-96288255D01*
X95028134Y-96281500D01*
X92931866Y-96281500D01*
X92869684Y-96288255D01*
X92733295Y-96339385D01*
X92616739Y-96426739D01*
X92529385Y-96543295D01*
X92526233Y-96551703D01*
X92526232Y-96551705D01*
X92492482Y-96641733D01*
X92449841Y-96698498D01*
X92383279Y-96723198D01*
X92313930Y-96707991D01*
X92263812Y-96657705D01*
X92248500Y-96597504D01*
X92248500Y-87408134D01*
X135699000Y-87408134D01*
X135705755Y-87470316D01*
X135756885Y-87606705D01*
X135844239Y-87723261D01*
X135960795Y-87810615D01*
X136097184Y-87861745D01*
X136159366Y-87868500D01*
X138160634Y-87868500D01*
X138222816Y-87861745D01*
X138359205Y-87810615D01*
X138475761Y-87723261D01*
X138563115Y-87606705D01*
X138570758Y-87586317D01*
X138613401Y-87529553D01*
X138679962Y-87504854D01*
X138749311Y-87520062D01*
X138766832Y-87531666D01*
X138884944Y-87624945D01*
X138893531Y-87630650D01*
X139094722Y-87741714D01*
X139104134Y-87745944D01*
X139320768Y-87822659D01*
X139330739Y-87825293D01*
X139428163Y-87842647D01*
X139441460Y-87841187D01*
X139445543Y-87828096D01*
X139954000Y-87828096D01*
X139957918Y-87841440D01*
X139972194Y-87843427D01*
X140034515Y-87833890D01*
X140044543Y-87831501D01*
X140262988Y-87760102D01*
X140272497Y-87756105D01*
X140476344Y-87649989D01*
X140485069Y-87644495D01*
X140668852Y-87506507D01*
X140676559Y-87499664D01*
X140835339Y-87333509D01*
X140841823Y-87325502D01*
X140864237Y-87292644D01*
X140919148Y-87247641D01*
X140989672Y-87239468D01*
X141053420Y-87270722D01*
X141074116Y-87295204D01*
X141078498Y-87301977D01*
X141240186Y-87479670D01*
X141291331Y-87520062D01*
X141424670Y-87625367D01*
X141424675Y-87625370D01*
X141428724Y-87628568D01*
X141433240Y-87631061D01*
X141433243Y-87631063D01*
X141634526Y-87742177D01*
X141634530Y-87742179D01*
X141639050Y-87744674D01*
X141643919Y-87746398D01*
X141643923Y-87746400D01*
X141860640Y-87823144D01*
X141860644Y-87823145D01*
X141865515Y-87824870D01*
X141870608Y-87825777D01*
X141870611Y-87825778D01*
X142096948Y-87866095D01*
X142096954Y-87866096D01*
X142102037Y-87867001D01*
X142189400Y-87868068D01*
X142337093Y-87869873D01*
X142337095Y-87869873D01*
X142342263Y-87869936D01*
X142579744Y-87833596D01*
X142694437Y-87796109D01*
X142803183Y-87760566D01*
X142803189Y-87760563D01*
X142808101Y-87758958D01*
X142812687Y-87756571D01*
X142812691Y-87756569D01*
X143016607Y-87650416D01*
X143021200Y-87648025D01*
X143109045Y-87582069D01*
X143209185Y-87506882D01*
X143209188Y-87506880D01*
X143213320Y-87503777D01*
X143379301Y-87330088D01*
X143505716Y-87144771D01*
X143511774Y-87135891D01*
X143511775Y-87135890D01*
X143514686Y-87131622D01*
X143529243Y-87100263D01*
X143613658Y-86918405D01*
X143613659Y-86918401D01*
X143615837Y-86913710D01*
X143680040Y-86682202D01*
X143701000Y-86486072D01*
X143701000Y-86251598D01*
X143699548Y-86233928D01*
X143686746Y-86078224D01*
X143686322Y-86073063D01*
X143627794Y-85840056D01*
X143531997Y-85619737D01*
X143401502Y-85418023D01*
X143239814Y-85240330D01*
X143123770Y-85148684D01*
X143055330Y-85094633D01*
X143055325Y-85094630D01*
X143051276Y-85091432D01*
X143046760Y-85088939D01*
X143046757Y-85088937D01*
X142845474Y-84977823D01*
X142845470Y-84977821D01*
X142840950Y-84975326D01*
X142836081Y-84973602D01*
X142836077Y-84973600D01*
X142619360Y-84896856D01*
X142619356Y-84896855D01*
X142614485Y-84895130D01*
X142609392Y-84894223D01*
X142609389Y-84894222D01*
X142383052Y-84853905D01*
X142383046Y-84853904D01*
X142377963Y-84852999D01*
X142285474Y-84851869D01*
X142142907Y-84850127D01*
X142142905Y-84850127D01*
X142137737Y-84850064D01*
X141900256Y-84886404D01*
X141788003Y-84923094D01*
X141676817Y-84959434D01*
X141676811Y-84959437D01*
X141671899Y-84961042D01*
X141667313Y-84963429D01*
X141667309Y-84963431D01*
X141463393Y-85069584D01*
X141458800Y-85071975D01*
X141454657Y-85075085D01*
X141454658Y-85075085D01*
X141289867Y-85198814D01*
X141266680Y-85216223D01*
X141100699Y-85389912D01*
X141075160Y-85427351D01*
X141020249Y-85472352D01*
X140949725Y-85480523D01*
X140885978Y-85449269D01*
X140865284Y-85424790D01*
X140863915Y-85422674D01*
X140857622Y-85414502D01*
X140702950Y-85244520D01*
X140695417Y-85237494D01*
X140515056Y-85095055D01*
X140506469Y-85089350D01*
X140305278Y-84978286D01*
X140295866Y-84974056D01*
X140079232Y-84897341D01*
X140069261Y-84894707D01*
X139971837Y-84877353D01*
X139958540Y-84878813D01*
X139954000Y-84893370D01*
X139954000Y-87828096D01*
X139445543Y-87828096D01*
X139446000Y-87826630D01*
X139446000Y-84891904D01*
X139442082Y-84878560D01*
X139427806Y-84876573D01*
X139365485Y-84886110D01*
X139355457Y-84888499D01*
X139137012Y-84959898D01*
X139127503Y-84963895D01*
X138923656Y-85070011D01*
X138914939Y-85075500D01*
X138763901Y-85188902D01*
X138697416Y-85213807D01*
X138628020Y-85198814D01*
X138577747Y-85148684D01*
X138570268Y-85132375D01*
X138563115Y-85113295D01*
X138475761Y-84996739D01*
X138359205Y-84909385D01*
X138222816Y-84858255D01*
X138160634Y-84851500D01*
X136159366Y-84851500D01*
X136097184Y-84858255D01*
X135960795Y-84909385D01*
X135844239Y-84996739D01*
X135756885Y-85113295D01*
X135705755Y-85249684D01*
X135699000Y-85311866D01*
X135699000Y-87408134D01*
X92248500Y-87408134D01*
X92248500Y-82374500D01*
X92268502Y-82306379D01*
X92322158Y-82259886D01*
X92374500Y-82248500D01*
X162434000Y-82248500D01*
X162502121Y-82268502D01*
G37*
%TD.AperFunction*%
%TD*%
M02*
