%TF.GenerationSoftware,KiCad,Pcbnew,(6.0.5)*%
%TF.CreationDate,2022-06-05T14:33:09+07:00*%
%TF.ProjectId,timer,74696d65-722e-46b6-9963-61645f706362,rev?*%
%TF.SameCoordinates,Original*%
%TF.FileFunction,Copper,L1,Top*%
%TF.FilePolarity,Positive*%
%FSLAX46Y46*%
G04 Gerber Fmt 4.6, Leading zero omitted, Abs format (unit mm)*
G04 Created by KiCad (PCBNEW (6.0.5)) date 2022-06-05 14:33:09*
%MOMM*%
%LPD*%
G01*
G04 APERTURE LIST*
%TA.AperFunction,ComponentPad*%
%ADD10C,1.600000*%
%TD*%
%TA.AperFunction,ComponentPad*%
%ADD11O,1.600000X1.600000*%
%TD*%
%TA.AperFunction,ComponentPad*%
%ADD12R,3.960000X1.980000*%
%TD*%
%TA.AperFunction,ComponentPad*%
%ADD13O,3.960000X1.980000*%
%TD*%
%TA.AperFunction,ComponentPad*%
%ADD14R,1.905000X2.000000*%
%TD*%
%TA.AperFunction,ComponentPad*%
%ADD15O,1.905000X2.000000*%
%TD*%
%TA.AperFunction,ComponentPad*%
%ADD16R,1.700000X1.700000*%
%TD*%
%TA.AperFunction,ComponentPad*%
%ADD17O,1.700000X1.700000*%
%TD*%
%TA.AperFunction,ComponentPad*%
%ADD18R,2.000000X2.000000*%
%TD*%
%TA.AperFunction,ComponentPad*%
%ADD19O,2.000000X1.600000*%
%TD*%
%TA.AperFunction,Conductor*%
%ADD20C,0.600000*%
%TD*%
G04 APERTURE END LIST*
D10*
%TO.P,R5,1*%
%TO.N,/O2*%
X97790000Y-109220000D03*
D11*
%TO.P,R5,2*%
%TO.N,Net-(J2-Pad2)*%
X110490000Y-109220000D03*
%TD*%
D12*
%TO.P,Input1,1,Pin_1*%
%TO.N,/Vin*%
X154870000Y-88580000D03*
D13*
%TO.P,Input1,2,Pin_2*%
%TO.N,GND*%
X154870000Y-93580000D03*
%TD*%
D14*
%TO.P,Q1,1,B*%
%TO.N,Net-(Q1-Pad1)*%
X154940000Y-119380000D03*
D15*
%TO.P,Q1,2,C*%
%TO.N,/L1*%
X152400000Y-119380000D03*
%TO.P,Q1,3,E*%
%TO.N,GND*%
X149860000Y-119380000D03*
%TD*%
D14*
%TO.P,Q2,1,B*%
%TO.N,Net-(Q2-Pad1)*%
X129540000Y-119380000D03*
D15*
%TO.P,Q2,2,C*%
%TO.N,/L2*%
X127000000Y-119380000D03*
%TO.P,Q2,3,E*%
%TO.N,GND*%
X124460000Y-119380000D03*
%TD*%
D16*
%TO.P,LA3,1,-*%
%TO.N,/L3*%
X139650000Y-111760000D03*
D17*
%TO.P,LA3,2,+*%
%TO.N,/Vin*%
X139650000Y-109220000D03*
%TD*%
D18*
%TO.P,U2,1,~{RST}*%
%TO.N,unconnected-(U2-Pad1)*%
X93980000Y-97790000D03*
D19*
%TO.P,U2,2,A0*%
%TO.N,unconnected-(U2-Pad2)*%
X93980000Y-100330000D03*
%TO.P,U2,3,D0*%
%TO.N,unconnected-(U2-Pad3)*%
X93980000Y-102870000D03*
%TO.P,U2,4,SCK/D5*%
%TO.N,/O1*%
X93980000Y-105410000D03*
%TO.P,U2,5,MISO/D6*%
%TO.N,/O2*%
X93980000Y-107950000D03*
%TO.P,U2,6,MOSI/D7*%
%TO.N,unconnected-(U2-Pad6)*%
X93980000Y-110490000D03*
%TO.P,U2,7,CS/D8*%
%TO.N,unconnected-(U2-Pad7)*%
X93980000Y-113030000D03*
%TO.P,U2,8,3V3*%
%TO.N,unconnected-(U2-Pad8)*%
X93980000Y-115570000D03*
%TO.P,U2,9,5V*%
%TO.N,+5V*%
X116840000Y-115570000D03*
%TO.P,U2,10,GND*%
%TO.N,GND*%
X116840000Y-113030000D03*
%TO.P,U2,11,D4*%
%TO.N,/D4*%
X116840000Y-110490000D03*
%TO.P,U2,12,D3*%
%TO.N,/D3*%
X116840000Y-107950000D03*
%TO.P,U2,13,SDA/D2*%
%TO.N,/D2*%
X116840000Y-105410000D03*
%TO.P,U2,14,SCL/D1*%
%TO.N,unconnected-(U2-Pad14)*%
X116840000Y-102870000D03*
%TO.P,U2,15,RX*%
%TO.N,unconnected-(U2-Pad15)*%
X116840000Y-100330000D03*
%TO.P,U2,16,TX*%
%TO.N,unconnected-(U2-Pad16)*%
X116840000Y-97790000D03*
%TD*%
D16*
%TO.P,J1,1,Pin_1*%
%TO.N,+5V*%
X124460000Y-88900000D03*
D17*
%TO.P,J1,2,Pin_2*%
%TO.N,Net-(J1-Pad2)*%
X127000000Y-88900000D03*
%TO.P,J1,3,Pin_3*%
%TO.N,GND*%
X129540000Y-88900000D03*
%TD*%
D16*
%TO.P,LA2,1,-*%
%TO.N,/L2*%
X127000000Y-111760000D03*
D17*
%TO.P,LA2,2,+*%
%TO.N,/Vin*%
X127000000Y-109220000D03*
%TD*%
D10*
%TO.P,C1,1*%
%TO.N,+5V*%
X142240000Y-93980000D03*
%TO.P,C1,2*%
%TO.N,GND*%
X138740000Y-93980000D03*
%TD*%
%TO.P,R3,1*%
%TO.N,/D4*%
X144780000Y-102870000D03*
D11*
%TO.P,R3,2*%
%TO.N,Net-(Q3-Pad1)*%
X144780000Y-115570000D03*
%TD*%
D10*
%TO.P,R4,1*%
%TO.N,/O1*%
X97790000Y-104140000D03*
D11*
%TO.P,R4,2*%
%TO.N,Net-(J1-Pad2)*%
X110490000Y-104140000D03*
%TD*%
D14*
%TO.P,U1,1,VI*%
%TO.N,/Vin*%
X137160000Y-86360000D03*
D15*
%TO.P,U1,2,GND*%
%TO.N,GND*%
X139700000Y-86360000D03*
%TO.P,U1,3,VO*%
%TO.N,+5V*%
X142240000Y-86360000D03*
%TD*%
D16*
%TO.P,J2,1,Pin_1*%
%TO.N,+5V*%
X124460000Y-96520000D03*
D17*
%TO.P,J2,2,Pin_2*%
%TO.N,Net-(J2-Pad2)*%
X127000000Y-96520000D03*
%TO.P,J2,3,Pin_3*%
%TO.N,GND*%
X129540000Y-96520000D03*
%TD*%
D14*
%TO.P,Q3,1,B*%
%TO.N,Net-(Q3-Pad1)*%
X142240000Y-119380000D03*
D15*
%TO.P,Q3,2,C*%
%TO.N,/L3*%
X139700000Y-119380000D03*
%TO.P,Q3,3,E*%
%TO.N,GND*%
X137160000Y-119380000D03*
%TD*%
D10*
%TO.P,R1,1*%
%TO.N,/D2*%
X157480000Y-102870000D03*
D11*
%TO.P,R1,2*%
%TO.N,Net-(Q1-Pad1)*%
X157480000Y-115570000D03*
%TD*%
D16*
%TO.P,LA1,1,-*%
%TO.N,/L1*%
X152400000Y-111760000D03*
D17*
%TO.P,LA1,2,+*%
%TO.N,/Vin*%
X152400000Y-109220000D03*
%TD*%
D10*
%TO.P,R2,1*%
%TO.N,/D3*%
X132080000Y-102870000D03*
D11*
%TO.P,R2,2*%
%TO.N,Net-(Q2-Pad1)*%
X132080000Y-115570000D03*
%TD*%
D20*
%TO.N,+5V*%
X124460000Y-96520000D02*
X126109511Y-98169511D01*
X122760000Y-109650000D02*
X116840000Y-115570000D01*
X138050489Y-98169511D02*
X142240000Y-93980000D01*
X122760000Y-98220000D02*
X122760000Y-109650000D01*
X126109511Y-98169511D02*
X138050489Y-98169511D01*
X124460000Y-96520000D02*
X122760000Y-98220000D01*
X124460000Y-96520000D02*
X124460000Y-88900000D01*
X142240000Y-93980000D02*
X142240000Y-86360000D01*
%TO.N,/Vin*%
X149980000Y-92980000D02*
X149980000Y-90500000D01*
X149980000Y-92980000D02*
X149980000Y-106800000D01*
X127000000Y-109220000D02*
X139650000Y-109220000D01*
X139610000Y-83910000D02*
X137160000Y-86360000D01*
X147900000Y-83910000D02*
X139610000Y-83910000D01*
X149980000Y-92980000D02*
X149980000Y-85990000D01*
X152400000Y-109220000D02*
X139650000Y-109220000D01*
X149980000Y-106800000D02*
X152400000Y-109220000D01*
X151900000Y-88580000D02*
X154870000Y-88580000D01*
X149980000Y-85990000D02*
X147900000Y-83910000D01*
X149980000Y-90500000D02*
X151900000Y-88580000D01*
%TD*%
M02*
